999
FreeCAD v1.0 39285 (Git)
  0
SECTION
  2
HEADER
  9
$ACADVER
  1
AC1014
  9
$ACADMAINTVER
 70
     9
  9
$DWGCODEPAGE
  3
ANSI_1252
  9
$TEXTSTYLE
  7
STANDARD
  9
$DIMSTYLE
  2
STANDARD
  9
$DIMTXSTY
  7
STANDARD
  9
$CMLSTYLE
  2
STANDARD
  9
$LUNITS
 70
2
  9
$INSUNITS
 70
4
  9
$PEXTMAX
 10
50
 20
50
 30
50
  9
$PEXTMIN
 10
0
 20
0
 30
0
  9
$HANDSEED
  5
FFFF
  0
ENDSEC
  0
SECTION
  2
CLASSES
  0
CLASS
  1
ACDBDICTIONARYWDFLT
  2
AcDbDictionaryWithDefault
  3
ObjectDBX Classes
 90
        0
280
     0
281
     0
  0
CLASS
  1
XRECORD
  2
AcDbXrecord
  3
ObjectDBX Classes
 90
        0
280
     0
281
     0
  0
CLASS
  1
LWPOLYLINE
  2
AcDbPolyline
  3
ObjectDBX Classes
 90
        0
280
     0
281
     1
  0
ENDSEC
  0
SECTION
  2
TABLES
  0
TABLE
  2
VPORT
  5
20
330
0
100
AcDbSymbolTable
 70
     1
  0
VPORT
  5
21
330
20
100
AcDbSymbolTableRecord
100
AcDbViewportTableRecord
  2
*ACTIVE
 70
     0
  0
ENDTAB
  0
TABLE
  2
LTYPE
  5
22
330
0
100
AcDbSymbolTable
 70
     1
  0
LTYPE
  5
23
330
21
100
AcDbSymbolTableRecord
100
AcDbLinetypeTableRecord
  2
BYBLOCK
 70
     0
  3

 72
    65
 73
     0
 40
0.0
  0
LTYPE
  5
24
330
21
100
AcDbSymbolTableRecord
100
AcDbLinetypeTableRecord
  2
BYLAYER
 70
     0
  3

 72
    65
 73
     0
 40
0.0
  0
LTYPE
  5
25
330
21
100
AcDbSymbolTableRecord
100
AcDbLinetypeTableRecord
  2
CONTINUOUS
 70
     0
  3
Solid line
 72
    65
 73
     0
 40
0.0
  0
ENDTAB
  0
TABLE
  2
LAYER
  5
ADA
330
0
100
AcDbSymbolTable
 70
22
  0
LAYER
  5
ADB
330
ADA
100
AcDbSymbolTableRecord
100
AcDbLayerTableRecord
  2
0
 70
   0
 62
   7
  6
CONTINUOUS
  0
LAYER
  5
ADC
330
ADA
100
AcDbSymbolTableRecord
100
AcDbLayerTableRecord
  2
TOP
 70
    0
 62
    7
  6
CONTINUOUS
  0
LAYER
  5
ADD
330
ADA
100
AcDbSymbolTableRecord
100
AcDbLayerTableRecord
  2
FRONT
 70
    0
 62
    7
  6
CONTINUOUS
  0
LAYER
  5
ADE
330
ADA
100
AcDbSymbolTableRecord
100
AcDbLayerTableRecord
  2
ISOMETRIC
 70
    0
 62
    7
  6
CONTINUOUS
  0
LAYER
  5
ADF
330
ADA
100
AcDbSymbolTableRecord
100
AcDbLayerTableRecord
  2
DimWidth
 70
    0
 62
    7
  6
CONTINUOUS
  0
LAYER
  5
AE0
330
ADA
100
AcDbSymbolTableRecord
100
AcDbLayerTableRecord
  2
DimHeight
 70
    0
 62
    7
  6
CONTINUOUS
  0
LAYER
  5
AE1
330
ADA
100
AcDbSymbolTableRecord
100
AcDbLayerTableRecord
  2
DimPen0Diam
 70
    0
 62
    7
  6
CONTINUOUS
  0
LAYER
  5
AE2
330
ADA
100
AcDbSymbolTableRecord
100
AcDbLayerTableRecord
  2
DimPen1Diam
 70
    0
 62
    7
  6
CONTINUOUS
  0
LAYER
  5
AE3
330
ADA
100
AcDbSymbolTableRecord
100
AcDbLayerTableRecord
  2
DimPen2Diam
 70
    0
 62
    7
  6
CONTINUOUS
  0
LAYER
  5
AE4
330
ADA
100
AcDbSymbolTableRecord
100
AcDbLayerTableRecord
  2
DimPen3Diam
 70
    0
 62
    7
  6
CONTINUOUS
  0
LAYER
  5
AE5
330
ADA
100
AcDbSymbolTableRecord
100
AcDbLayerTableRecord
  2
DimBolt
 70
    0
 62
    7
  6
CONTINUOUS
  0
LAYER
  5
AE6
330
ADA
100
AcDbSymbolTableRecord
100
AcDbLayerTableRecord
  2
PositionBlock
 70
    0
 62
    7
  6
CONTINUOUS
  0
LAYER
  5
AE7
330
ADA
100
AcDbSymbolTableRecord
100
AcDbLayerTableRecord
  2
SlotNote
 70
    0
 62
    7
  6
CONTINUOUS
  0
LAYER
  5
AE8
330
ADA
100
AcDbSymbolTableRecord
100
AcDbLayerTableRecord
  2
DimThickness
 70
    0
 62
    7
  6
CONTINUOUS
  0
LAYER
  5
AE9
330
ADA
100
AcDbSymbolTableRecord
100
AcDbLayerTableRecord
  2
DetailSlot
 70
    0
 62
    7
  6
CONTINUOUS
  0
LAYER
  5
AEA
330
ADA
100
AcDbSymbolTableRecord
100
AcDbLayerTableRecord
  2
DimSlotWidth
 70
    0
 62
    7
  6
CONTINUOUS
  0
LAYER
  5
AEB
330
ADA
100
AcDbSymbolTableRecord
100
AcDbLayerTableRecord
  2
DetailTyp
 70
    0
 62
    7
  6
CONTINUOUS
  0
LAYER
  5
AEC
330
ADA
100
AcDbSymbolTableRecord
100
AcDbLayerTableRecord
  2
LabelDETAIL
 70
    0
 62
    7
  6
CONTINUOUS
  0
LAYER
  5
AED
330
ADA
100
AcDbSymbolTableRecord
100
AcDbLayerTableRecord
  2
Notes
 70
    0
 62
    7
  6
CONTINUOUS
  0
LAYER
  5
AEE
330
ADA
100
AcDbSymbolTableRecord
100
AcDbLayerTableRecord
  2
LabelTOP
 70
    0
 62
    7
  6
CONTINUOUS
  0
LAYER
  5
AEF
330
ADA
100
AcDbSymbolTableRecord
100
AcDbLayerTableRecord
  2
LabelFRONT
 70
    0
 62
    7
  6
CONTINUOUS
  0
LAYER
  5
AF0
330
ADA
100
AcDbSymbolTableRecord
100
AcDbLayerTableRecord
  2
LabelISOMETRIC
 70
    0
 62
    7
  6
CONTINUOUS
  0
ENDTAB
  0
TABLE
  2
STYLE
  5
70
330
0
100
AcDbSymbolTable
 70
     2
  0
STYLE
  5
71
330
70
100
AcDbSymbolTableRecord
100
AcDbTextStyleTableRecord
  2
STANDARD
 70
     0
 40
0.0
 41
1.0
 50
0.0
 71
     0
 42
2.5
  3
arial.ttf
  4

  0
STYLE
  5
72
330
70
100
AcDbSymbolTableRecord
100
AcDbTextStyleTableRecord
  2
ANNOTATIVE
 70
     0
 40
0.0
 41
1.0
 50
0.0
 71
     0
 42
2.5
  3
arial.ttf
  4

  0
ENDTAB
  0
TABLE
  2
VIEW
  5
73
330
0
100
AcDbSymbolTable
 70
     0
  0
ENDTAB
  0
TABLE
  2
UCS
  5
74
330
0
100
AcDbSymbolTable
 70
     0
  0
ENDTAB
  0
TABLE
  2
APPID
  5
75
330
0
100
AcDbSymbolTable
 70
     2
  0
APPID
  5
76
330
75
100
AcDbSymbolTableRecord
100
AcDbRegAppTableRecord
  2
ACAD
 70
     0
  0
APPID
  5
77
330
75
100
AcDbSymbolTableRecord
100
AcDbRegAppTableRecord
  2
ACADANNOTATIVE
 70
     0
  0
ENDTAB
  0
TABLE
  2
DIMSTYLE
  5
78
330
0
100
AcDbSymbolTable
 70
     2
  0
DIMSTYLE
105
79
330
78
100
AcDbSymbolTableRecord
100
AcDbDimStyleTableRecord
  2
STANDARD
 70
     0
  3

  4

  5

  6

  7

 40
0.0
 41
2.5
 42
0.625
 43
3.75
 44
1.25
 45
0.0
 46
0.0
 47
0.0
 48
0.0
140
2.5
141
2.5
142
0.0
143
0.03937007874016
144
1.0
145
0.0
146
1.0
147
0.625
 71
     0
 72
     0
 73
     0
 74
     0
 75
     0
 76
     0
 77
     1
 78
     8
170
     0
171
     3
172
     1
173
     0
174
     0
175
     0
176
     0
177
     0
178
     0
270
     2
271
     2
272
     2
273
     2
274
     3
340
71
275
     0
280
     0
281
     0
282
     0
283
     0
284
     8
285
     0
286
     0
287
     3
288
     0
  0
ENDTAB
  0
TABLE
  2
BLOCK_RECORD
  5
A01
330
0
100
AcDbSymbolTable
  70
5
  0
BLOCK_RECORD
  5
A02
330
A01
100
AcDbSymbolTableRecord
100
AcDbBlockTableRecord
  2
*MODEL_SPACE
  0
BLOCK_RECORD
  5
A03
330
A01
100
AcDbSymbolTableRecord
100
AcDbBlockTableRecord
  2
*PAPER_SPACE
  0
BLOCK_RECORD
  5
A80
330
A01
100
AcDbSymbolTableRecord
100
AcDbBlockTableRecord
  2
*DimWidth
  0
BLOCK_RECORD
  5
A8A
330
A01
100
AcDbSymbolTableRecord
100
AcDbBlockTableRecord
  2
*DimHeight
  0
BLOCK_RECORD
  5
A94
330
A01
100
AcDbSymbolTableRecord
100
AcDbBlockTableRecord
  2
*DimPen0Diam
  0
BLOCK_RECORD
  5
A9C
330
A01
100
AcDbSymbolTableRecord
100
AcDbBlockTableRecord
  2
*DimPen1Diam
  0
BLOCK_RECORD
  5
AA4
330
A01
100
AcDbSymbolTableRecord
100
AcDbBlockTableRecord
  2
*DimPen2Diam
  0
BLOCK_RECORD
  5
AAC
330
A01
100
AcDbSymbolTableRecord
100
AcDbBlockTableRecord
  2
*DimPen3Diam
  0
BLOCK_RECORD
  5
AB4
330
A01
100
AcDbSymbolTableRecord
100
AcDbBlockTableRecord
  2
*DimBolt
  0
BLOCK_RECORD
  5
ABE
330
A01
100
AcDbSymbolTableRecord
100
AcDbBlockTableRecord
  2
*DimThickness
  0
BLOCK_RECORD
  5
ACD
330
A01
100
AcDbSymbolTableRecord
100
AcDbBlockTableRecord
  2
*DimSlotWidth
  0
ENDTAB
  0
ENDSEC
  0
SECTION
  2
BLOCKS
  0
BLOCK
  5
A04
330
A02
100
AcDbEntity
  8
0
100
AcDbBlockBegin
  2
*MODEL_SPACE
 70
   0
 10
0
 20
0
 30
0
  3
*MODEL_SPACE
  1
 
  0
ENDBLK
  5
A05
330
A02
100
AcDbEntity
  8
0
100
AcDbBlockEnd
  0
BLOCK
  5
A06
330
A03
100
AcDbEntity
 67
1
  8
0
100
AcDbBlockBegin
  2
*PAPER_SPACE
 70
   0
 10
0
 20
0
 30
0
  3
*PAPER_SPACE
  1
 
  0
ENDBLK
  5
A07
330
A03
100
AcDbEntity
 67
    1
  8
0
100
AcDbBlockEnd
  0
BLOCK
  5
A81
330
A80
100
AcDbEntity
  8
DimWidth
100
AcDbBlockBegin
  2
*DimWidth
 70
   1
 10
0
 20
0
 30
0
  3
*DimWidth
  1
 
  0
LINE
  5
A82
330
A80
100
AcDbEntity
  8
DimWidth
100
AcDbLine
 10
387.619
 20
100
 30
0
 11
387.619
 21
70
 31
0
  0
LINE
  5
A83
330
A80
100
AcDbEntity
  8
DimWidth
100
AcDbLine
 10
52.381
 20
100
 30
0
 11
52.381
 21
70
 31
0
  0
LINE
  5
A84
330
A80
100
AcDbEntity
  8
DimWidth
100
AcDbLine
 10
52.381
 20
70
 30
0
 11
387.619
 21
70
 31
0
  0
TEXT
  5
A85
330
A80
100
AcDbEntity
  8
DimWidth
100
AcDbText
 10
220
 20
75
 30
0
 40
3.5
  1
640
  7
STANDARD
 72
1
 11
220
 21
70
 31
0
100
AcDbText
  0
SOLID
  5
A86
330
A80
100
AcDbEntity
  8
0
 62
     0
100
AcDbTrace
 10
47.381
 20
69.5833
 30
0
 11
47.381
 21
70.4167
 31
0
 12
52.381
 22
70
 32
0
 13
52.381
 23
70
 33
0
  0
SOLID
  5
A87
330
A80
100
AcDbEntity
  8
0
 62
     0
100
AcDbTrace
 10
392.619
 20
69.5833
 30
0
 11
392.619
 21
70.4167
 31
0
 12
387.619
 22
70
 32
0
 13
387.619
 23
70
 33
0
  0
ENDBLK
  5
A88
330
A80
100
AcDbEntity
  8
DimWidth
100
AcDbBlockEnd
  0
BLOCK
  5
A8B
330
A8A
100
AcDbEntity
  8
DimHeight
100
AcDbBlockBegin
  2
*DimHeight
 70
   1
 10
0
 20
0
 30
0
  3
*DimHeight
  1
 
  0
LINE
  5
A8C
330
A8A
100
AcDbEntity
  8
DimHeight
100
AcDbLine
 10
52.381
 20
540
 30
0
 11
407.619
 21
540
 31
0
  0
LINE
  5
A8D
330
A8A
100
AcDbEntity
  8
DimHeight
100
AcDbLine
 10
52.381
 20
100
 30
0
 11
407.619
 21
100
 31
0
  0
LINE
  5
A8E
330
A8A
100
AcDbEntity
  8
DimHeight
100
AcDbLine
 10
407.619
 20
100
 30
0
 11
407.619
 21
540
 31
0
  0
TEXT
  5
A8F
330
A8A
100
AcDbEntity
  8
DimHeight
100
AcDbText
 10
412.619
 20
320
 30
0
 40
3.5
  1
840
  7
STANDARD
 72
1
 11
407.619
 21
320
 31
0
100
AcDbText
  0
SOLID
  5
A90
330
A8A
100
AcDbEntity
  8
0
 62
     0
100
AcDbTrace
 10
408.036
 20
95
 30
0
 11
407.202
 21
95
 31
0
 12
407.619
 22
100
 32
0
 13
407.619
 23
100
 33
0
  0
SOLID
  5
A91
330
A8A
100
AcDbEntity
  8
0
 62
     0
100
AcDbTrace
 10
408.036
 20
545
 30
0
 11
407.202
 21
545
 31
0
 12
407.619
 22
540
 32
0
 13
407.619
 23
540
 33
0
  0
ENDBLK
  5
A92
330
A8A
100
AcDbEntity
  8
DimHeight
100
AcDbBlockEnd
  0
BLOCK
  5
A95
330
A94
100
AcDbEntity
  8
DimPen0Diam
100
AcDbBlockBegin
  2
*DimPen0Diam
 70
   1
 10
0
 20
0
 30
0
  3
*DimPen0Diam
  1
 
  0
LINE
  5
A96
330
A94
100
AcDbEntity
  8
DimPen0Diam
100
AcDbLine
 10
124.866
 20
404.473
 30
0
 11
157.991
 21
445.05
 31
0
  0
TEXT
  5
A97
330
A94
100
AcDbEntity
  8
DimPen0Diam
100
AcDbText
 10
85.2381
 20
368.571
 30
0
 40
3.5
  1
⌀100.0 H10 (power_conduit_left) ± 0.14
  7
STANDARD
 72
1
 11
85.2381
 21
368.571
 31
0
100
AcDbText
  0
SOLID
  5
A98
330
A94
100
AcDbEntity
  8
0
 62
     0
100
AcDbTrace
 10
127.705
 20
408.61
 30
0
 11
128.351
 21
408.083
 31
0
 12
124.866
 22
404.473
 32
0
 13
124.866
 23
404.473
 33
0
  0
SOLID
  5
A99
330
A94
100
AcDbEntity
  8
0
 62
     0
100
AcDbTrace
 10
154.506
 20
441.441
 30
0
 11
155.152
 21
440.914
 31
0
 12
157.991
 22
445.05
 32
0
 13
157.991
 23
445.05
 33
0
  0
ENDBLK
  5
A9A
330
A94
100
AcDbEntity
  8
DimPen0Diam
100
AcDbBlockEnd
  0
BLOCK
  5
A9D
330
A9C
100
AcDbEntity
  8
DimPen1Diam
100
AcDbBlockBegin
  2
*DimPen1Diam
 70
   1
 10
0
 20
0
 30
0
  3
*DimPen1Diam
  1
 
  0
LINE
  5
A9E
330
A9C
100
AcDbEntity
  8
DimPen1Diam
100
AcDbLine
 10
166.497
 20
417.178
 30
0
 11
116.36
 21
432.346
 31
0
  0
TEXT
  5
A9F
330
A9C
100
AcDbEntity
  8
DimPen1Diam
100
AcDbText
 10
354.762
 20
368.571
 30
0
 40
3.5
  1
⌀100.0 H10 (power_conduit_right) ± 0.14
  7
STANDARD
 72
1
 11
354.762
 21
368.571
 31
0
100
AcDbText
  0
SOLID
  5
AA0
330
A9C
100
AcDbEntity
  8
0
 62
     0
100
AcDbTrace
 10
161.59
 20
418.227
 30
0
 11
161.832
 21
419.024
 31
0
 12
166.497
 22
417.178
 32
0
 13
166.497
 23
417.178
 33
0
  0
SOLID
  5
AA1
330
A9C
100
AcDbEntity
  8
0
 62
     0
100
AcDbTrace
 10
121.025
 20
430.499
 30
0
 11
121.267
 21
431.297
 31
0
 12
116.36
 22
432.346
 32
0
 13
116.36
 23
432.346
 33
0
  0
ENDBLK
  5
AA2
330
A9C
100
AcDbEntity
  8
DimPen1Diam
100
AcDbBlockEnd
  0
BLOCK
  5
AA5
330
AA4
100
AcDbEntity
  8
DimPen2Diam
100
AcDbBlockBegin
  2
*DimPen2Diam
 70
   1
 10
0
 20
0
 30
0
  3
*DimPen2Diam
  1
 
  0
LINE
  5
AA6
330
AA4
100
AcDbEntity
  8
DimPen2Diam
100
AcDbLine
 10
227.345
 20
299.294
 30
0
 11
212.655
 21
288.325
 31
0
  0
TEXT
  5
AA7
330
AA4
100
AcDbEntity
  8
DimPen2Diam
100
AcDbText
 10
259.167
 20
332.976
 30
0
 40
3.5
  1
⌀35.0 H10 (data_conduit) ± 0.1
  7
STANDARD
 72
1
 11
259.167
 21
332.976
 31
0
100
AcDbText
  0
SOLID
  5
AA8
330
AA4
100
AcDbEntity
  8
0
 62
     0
100
AcDbTrace
 10
223.588
 20
295.969
 30
0
 11
223.089
 21
296.636
 31
0
 12
227.345
 22
299.294
 32
0
 13
227.345
 23
299.294
 33
0
  0
SOLID
  5
AA9
330
AA4
100
AcDbEntity
  8
0
 62
     0
100
AcDbTrace
 10
216.911
 20
290.983
 30
0
 11
216.412
 21
291.65
 31
0
 12
212.655
 22
288.325
 32
0
 13
212.655
 23
288.325
 33
0
  0
ENDBLK
  5
AAA
330
AA4
100
AcDbEntity
  8
DimPen2Diam
100
AcDbBlockEnd
  0
BLOCK
  5
AAD
330
AAC
100
AcDbEntity
  8
DimPen3Diam
100
AcDbBlockBegin
  2
*DimPen3Diam
 70
   1
 10
0
 20
0
 30
0
  3
*DimPen3Diam
  1
 
  0
LINE
  5
AAE
330
AAC
100
AcDbEntity
  8
DimPen3Diam
100
AcDbLine
 10
84.9816
 20
317.368
 30
0
 11
82.6374
 21
322.632
 31
0
  0
TEXT
  5
AAF
330
AAC
100
AcDbEntity
  8
DimPen3Diam
100
AcDbText
 10
147.91
 20
195.529
 30
0
 40
3.5
  1
⌀11.0 TAP M12 THRU
  7
STANDARD
 72
1
 11
147.91
 21
195.529
 31
0
100
AcDbText
  0
SOLID
  5
AB0
330
AAC
100
AcDbEntity
  8
0
 62
     0
100
AcDbTrace
 10
82.5668
 20
321.766
 30
0
 11
83.328
 21
322.105
 31
0
 12
84.9816
 22
317.368
 32
0
 13
84.9816
 23
317.368
 33
0
  0
SOLID
  5
AB1
330
AAC
100
AcDbEntity
  8
0
 62
     0
100
AcDbTrace
 10
84.291
 20
317.895
 30
0
 11
85.0523
 21
318.234
 31
0
 12
82.6374
 22
322.632
 32
0
 13
82.6374
 23
322.632
 33
0
  0
ENDBLK
  5
AB2
330
AAC
100
AcDbEntity
  8
DimPen3Diam
100
AcDbBlockEnd
  0
BLOCK
  5
AB5
330
AB4
100
AcDbEntity
  8
DimBolt
100
AcDbBlockBegin
  2
*DimBolt
 70
   1
 10
0
 20
0
 30
0
  3
*DimBolt
  1
 
  0
LINE
  5
AB6
330
AB4
100
AcDbEntity
  8
DimBolt
100
AcDbLine
 10
86.2141
 20
321.587
 30
0
 11
81.405
 21
318.413
 31
0
  0
TEXT
  5
AB7
330
AB4
100
AcDbEntity
  8
DimBolt
100
AcDbText
 10
111.69
 20
347.881
 30
0
 40
3.5
  1
8X ⌀11.0 H9 ± 0.04
  7
STANDARD
 72
1
 11
111.69
 21
347.881
 31
0
100
AcDbText
  0
SOLID
  5
AB8
330
AB4
100
AcDbEntity
  8
0
 62
     0
100
AcDbTrace
 10
82.2704
 20
318.485
 30
0
 11
81.8114
 21
319.181
 31
0
 12
86.2141
 22
321.587
 32
0
 13
86.2141
 23
321.587
 33
0
  0
SOLID
  5
AB9
330
AB4
100
AcDbEntity
  8
0
 62
     0
100
AcDbTrace
 10
85.8077
 20
320.819
 30
0
 11
85.3487
 21
321.515
 31
0
 12
81.405
 22
318.413
 32
0
 13
81.405
 23
318.413
 33
0
  0
ENDBLK
  5
ABA
330
AB4
100
AcDbEntity
  8
DimBolt
100
AcDbBlockEnd
  0
BLOCK
  5
ABF
330
ABE
100
AcDbEntity
  8
DimThickness
100
AcDbBlockBegin
  2
*DimThickness
 70
   1
 10
0
 20
0
 30
0
  3
*DimThickness
  1
 
  0
LINE
  5
AC0
330
ABE
100
AcDbEntity
  8
DimThickness
100
AcDbLine
 10
432.381
 20
482.619
 30
0
 11
625
 21
482.619
 31
0
  0
LINE
  5
AC1
330
ABE
100
AcDbEntity
  8
DimThickness
100
AcDbLine
 10
432.381
 20
477.381
 30
0
 11
625
 21
477.381
 31
0
  0
LINE
  5
AC2
330
ABE
100
AcDbEntity
  8
DimThickness
100
AcDbLine
 10
625
 20
477.381
 30
0
 11
625
 21
482.619
 31
0
  0
TEXT
  5
AC3
330
ABE
100
AcDbEntity
  8
DimThickness
100
AcDbText
 10
630
 20
480
 30
0
 40
3.5
  1
10
  7
STANDARD
 72
1
 11
625
 21
480
 31
0
100
AcDbText
  0
SOLID
  5
AC4
330
ABE
100
AcDbEntity
  8
0
 62
     0
100
AcDbTrace
 10
625.417
 20
472.381
 30
0
 11
624.583
 21
472.381
 31
0
 12
625
 22
477.381
 32
0
 13
625
 23
477.381
 33
0
  0
SOLID
  5
AC5
330
ABE
100
AcDbEntity
  8
0
 62
     0
100
AcDbTrace
 10
625.417
 20
487.619
 30
0
 11
624.583
 21
487.619
 31
0
 12
625
 22
482.619
 32
0
 13
625
 23
482.619
 33
0
  0
ENDBLK
  5
AC6
330
ABE
100
AcDbEntity
  8
DimThickness
100
AcDbBlockEnd
  0
BLOCK
  5
ACE
330
ACD
100
AcDbEntity
  8
DimSlotWidth
100
AcDbBlockBegin
  2
*DimSlotWidth
 70
   1
 10
0
 20
0
 30
0
  3
*DimSlotWidth
  1
 
  0
LINE
  5
ACF
330
ACD
100
AcDbEntity
  8
DimSlotWidth
100
AcDbLine
 10
239.585
 20
124.961
 30
0
 11
195.732
 21
128.554
 31
0
  0
TEXT
  5
AD0
330
ACD
100
AcDbEntity
  8
DimSlotWidth
100
AcDbText
 10
275
 20
130
 30
0
 40
3.5
  1
⌀11.0 H9 ± 0.04
  7
STANDARD
 72
1
 11
275
 21
130
 31
0
100
AcDbText
  0
SOLID
  5
AD1
330
ACD
100
AcDbEntity
  8
0
 62
     0
100
AcDbTrace
 10
234.567
 20
124.954
 30
0
 11
234.635
 21
125.784
 31
0
 12
239.585
 22
124.961
 32
0
 13
239.585
 23
124.961
 33
0
  0
SOLID
  5
AD2
330
ACD
100
AcDbEntity
  8
0
 62
     0
100
AcDbTrace
 10
200.681
 20
127.73
 30
0
 11
200.749
 21
128.561
 31
0
 12
195.732
 22
128.554
 32
0
 13
195.732
 23
128.554
 33
0
  0
ENDBLK
  5
AD3
330
ACD
100
AcDbEntity
  8
DimSlotWidth
100
AcDbBlockEnd
  0
ENDSEC
  0
SECTION
  2
ENTITIES
  0
LINE
  5
A08
330
A02
100
AcDbEntity
  8
TOP
100
AcDbLine
 10
52.380952381
 20
100.000000000
 30
0.000000000
 11
52.380952381
 21
540.000000000
 31
0.000000000
  0
LINE
  5
A09
330
A02
100
AcDbEntity
  8
TOP
100
AcDbLine
 10
52.380952381
 20
100.000000000
 30
0.000000000
 11
387.619047619
 21
100.000000000
 31
0.000000000
  0
LINE
  5
A0A
330
A02
100
AcDbEntity
  8
TOP
100
AcDbLine
 10
387.619047619
 20
100.000000000
 30
0.000000000
 11
387.619047619
 21
540.000000000
 31
0.000000000
  0
LINE
  5
A0B
330
A02
100
AcDbEntity
  8
TOP
100
AcDbLine
 10
52.380952381
 20
540.000000000
 30
0.000000000
 11
387.619047619
 21
540.000000000
 31
0.000000000
  0
ARC
  5
A0C
330
A02
100
AcDbEntity
  8
TOP
100
AcDbCircle
 10
84.116209338
 20
131.853212929
 30
0.000000000
 40
2.880952381
100
AcDbArc
 50
-35.837652954
 51
144.162347046
  0
LINE
  5
A0D
330
A02
100
AcDbEntity
  8
TOP
100
AcDbLine
 10
86.451737591
 20
130.166442524
 30
0.000000000
 11
85.838366535
 21
129.317159523
 31
0.000000000
  0
ARC
  5
A0E
330
A02
100
AcDbEntity
  8
TOP
100
AcDbCircle
 10
83.502838281
 20
131.003929928
 30
0.000000000
 40
2.880952381
100
AcDbArc
 50
144.162347045
 51
-35.837652954
  0
LINE
  5
A0F
330
A02
100
AcDbEntity
  8
TOP
100
AcDbLine
 10
81.167310028
 20
132.690700333
 30
0.000000000
 11
81.780681085
 21
133.539983334
 31
0.000000000
  0
CIRCLE
  5
A10
330
A02
100
AcDbEntity
  8
TOP
100
AcDbCircle
 10
115.238095238
 20
162.857142857
 30
0.000000000
 40
2.671428571
  0
ARC
  5
A11
330
A02
100
AcDbEntity
  8
TOP
100
AcDbCircle
 10
220.000000000
 20
131.952380952
 30
0.000000000
 40
2.880952381
100
AcDbArc
 50
0.000000000
 51
180.000000000
  0
LINE
  5
A12
330
A02
100
AcDbEntity
  8
TOP
100
AcDbLine
 10
222.880952381
 20
131.952380952
 30
0.000000000
 11
222.880952381
 21
130.904761905
 31
0.000000000
  0
ARC
  5
A13
330
A02
100
AcDbEntity
  8
TOP
100
AcDbCircle
 10
220.000000000
 20
130.904761905
 30
0.000000000
 40
2.880952381
100
AcDbArc
 50
180.000000000
 51
0.000000000
  0
LINE
  5
A14
330
A02
100
AcDbEntity
  8
TOP
100
AcDbLine
 10
217.119047619
 20
130.904761905
 30
0.000000000
 11
217.119047619
 21
131.952380952
 31
0.000000000
  0
ARC
  5
A15
330
A02
100
AcDbEntity
  8
TOP
100
AcDbCircle
 10
355.883790662
 20
131.853212929
 30
0.000000000
 40
2.880952381
100
AcDbArc
 50
35.837652955
 51
-144.162347046
  0
LINE
  5
A16
330
A02
100
AcDbEntity
  8
TOP
100
AcDbLine
 10
358.219318916
 20
133.539983334
 30
0.000000000
 11
358.832689972
 21
132.690700333
 31
0.000000000
  0
ARC
  5
A17
330
A02
100
AcDbEntity
  8
TOP
100
AcDbCircle
 10
356.497161719
 20
131.003929928
 30
0.000000000
 40
2.880952381
100
AcDbArc
 50
-144.162347046
 51
35.837652954
  0
LINE
  5
A18
330
A02
100
AcDbEntity
  8
TOP
100
AcDbLine
 10
354.161633465
 20
129.317159523
 30
0.000000000
 11
353.548262409
 21
130.166442524
 31
0.000000000
  0
CIRCLE
  5
A19
330
A02
100
AcDbEntity
  8
TOP
100
AcDbCircle
 10
220.000000000
 20
293.809523810
 30
0.000000000
 40
9.166666667
  0
CIRCLE
  5
A1A
330
A02
100
AcDbEntity
  8
TOP
100
AcDbCircle
 10
83.809523810
 20
320.000000000
 30
0.000000000
 40
2.880952381
  0
CIRCLE
  5
A1B
330
A02
100
AcDbEntity
  8
TOP
100
AcDbCircle
 10
141.428571429
 20
424.761904762
 30
0.000000000
 40
26.190476190
  0
ARC
  5
A1C
330
A02
100
AcDbEntity
  8
TOP
100
AcDbCircle
 10
84.116209338
 20
508.146787071
 30
0.000000000
 40
2.880952381
100
AcDbArc
 50
-144.162347046
 51
35.837652954
  0
LINE
  5
A1D
330
A02
100
AcDbEntity
  8
TOP
100
AcDbLine
 10
81.780681085
 20
506.460016666
 30
0.000000000
 11
81.167310028
 21
507.309299667
 31
0.000000000
  0
ARC
  5
A1E
330
A02
100
AcDbEntity
  8
TOP
100
AcDbCircle
 10
83.502838281
 20
508.996070072
 30
0.000000000
 40
2.880952381
100
AcDbArc
 50
35.837652954
 51
-144.162347046
  0
LINE
  5
A1F
330
A02
100
AcDbEntity
  8
TOP
100
AcDbLine
 10
85.838366535
 20
510.682840477
 30
0.000000000
 11
86.451737591
 21
509.833557476
 31
0.000000000
  0
CIRCLE
  5
A20
330
A02
100
AcDbEntity
  8
TOP
100
AcDbCircle
 10
356.190476190
 20
320.000000000
 30
0.000000000
 40
2.880952381
  0
ARC
  5
A21
330
A02
100
AcDbEntity
  8
TOP
100
AcDbCircle
 10
220.000000000
 20
508.047619048
 30
0.000000000
 40
2.880952381
100
AcDbArc
 50
180.000000000
 51
0.000000000
  0
LINE
  5
A22
330
A02
100
AcDbEntity
  8
TOP
100
AcDbLine
 10
217.119047619
 20
508.047619048
 30
0.000000000
 11
217.119047619
 21
509.095238095
 31
0.000000000
  0
ARC
  5
A23
330
A02
100
AcDbEntity
  8
TOP
100
AcDbCircle
 10
220.000000000
 20
509.095238095
 30
0.000000000
 40
2.880952381
100
AcDbArc
 50
0.000000000
 51
180.000000000
  0
LINE
  5
A24
330
A02
100
AcDbEntity
  8
TOP
100
AcDbLine
 10
222.880952381
 20
509.095238095
 30
0.000000000
 11
222.880952381
 21
508.047619048
 31
0.000000000
  0
CIRCLE
  5
A25
330
A02
100
AcDbEntity
  8
TOP
100
AcDbCircle
 10
298.571428571
 20
424.761904762
 30
0.000000000
 40
26.190476190
  0
ARC
  5
A26
330
A02
100
AcDbEntity
  8
TOP
100
AcDbCircle
 10
355.883790662
 20
508.146787071
 30
0.000000000
 40
2.880952381
100
AcDbArc
 50
144.162347046
 51
-35.837652954
  0
LINE
  5
A27
330
A02
100
AcDbEntity
  8
TOP
100
AcDbLine
 10
353.548262409
 20
509.833557476
 30
0.000000000
 11
354.161633465
 21
510.682840477
 31
0.000000000
  0
ARC
  5
A28
330
A02
100
AcDbEntity
  8
TOP
100
AcDbCircle
 10
356.497161719
 20
508.996070072
 30
0.000000000
 40
2.880952381
100
AcDbArc
 50
-35.837652954
 51
144.162347046
  0
LINE
  5
A29
330
A02
100
AcDbEntity
  8
TOP
100
AcDbLine
 10
358.832689972
 20
507.309299667
 30
0.000000000
 11
358.219318915
 21
506.460016666
 31
0.000000000
  0
LINE
  5
A2A
330
A02
100
AcDbEntity
  8
FRONT
100
AcDbLine
 10
432.380952381
 20
477.380952381
 30
0.000000000
 11
432.380952381
 21
482.619047619
 31
0.000000000
  0
LINE
  5
A2B
330
A02
100
AcDbEntity
  8
FRONT
100
AcDbLine
 10
432.380952381
 20
477.380952381
 30
0.000000000
 11
767.619047619
 21
477.380952381
 31
0.000000000
  0
LINE
  5
A2C
330
A02
100
AcDbEntity
  8
FRONT
100
AcDbLine
 10
432.380952381
 20
482.619047619
 30
0.000000000
 11
767.619047619
 21
482.619047619
 31
0.000000000
  0
LINE
  5
A2D
330
A02
100
AcDbEntity
  8
FRONT
100
AcDbLine
 10
767.619047619
 20
477.380952381
 30
0.000000000
 11
767.619047619
 21
482.619047619
 31
0.000000000
  0
LINE
  5
A2E
330
A02
100
AcDbEntity
  8
ISOMETRIC
100
AcDbLine
 10
455.547165747
 20
285.886273387
 30
0.000000000
 11
455.547165747
 21
288.452405498
 31
0.000000000
  0
LINE
  5
A2F
330
A02
100
AcDbEntity
  8
ISOMETRIC
100
AcDbLine
 10
455.547165747
 20
288.452405498
 30
0.000000000
 11
642.223355980
 21
396.229954181
 31
0.000000000
  0
LINE
  5
A30
330
A02
100
AcDbEntity
  8
ISOMETRIC
100
AcDbLine
 10
455.547165747
 20
285.886273387
 30
0.000000000
 11
597.776644020
 21
203.770045819
 31
0.000000000
  0
LINE
  5
A31
330
A02
100
AcDbEntity
  8
ISOMETRIC
100
AcDbLine
 10
455.547165747
 20
288.452405498
 30
0.000000000
 11
597.776644020
 21
206.336177931
 31
0.000000000
  0
LINE
  5
A32
330
A02
100
AcDbEntity
  8
ISOMETRIC
100
AcDbLine
 10
597.776644020
 20
203.770045819
 30
0.000000000
 11
597.776644020
 21
206.336177931
 31
0.000000000
  0
LINE
  5
A33
330
A02
100
AcDbEntity
  8
ISOMETRIC
100
AcDbLine
 10
597.776644020
 20
206.336177931
 30
0.000000000
 11
784.452834253
 21
314.113726613
 31
0.000000000
  0
LINE
  5
A34
330
A02
100
AcDbEntity
  8
ISOMETRIC
100
AcDbLine
 10
642.223355980
 20
396.229954181
 30
0.000000000
 11
784.452834253
 21
314.113726613
 31
0.000000000
  0
ELLIPSE
  5
A35
330
A02
100
AcDbEntity
  8
ISOMETRIC
100
AcDbEllipse
 10
482.525468704
 20
288.481298693
 30
0.000000000
 11
1.728571429
 21
0.000000000
 31
0.000000000
 40
0.577350269
 41
4.872302104
 42
0.000000000
  0
ELLIPSE
  5
A36
330
A02
100
AcDbEntity
  8
ISOMETRIC
100
AcDbEllipse
 10
482.525468704
 20
288.481298693
 30
0.000000000
 11
1.728571429
 21
0.000000000
 31
0.000000000
 40
0.577350269
 41
0.000000000
 42
1.730709450
  0
LINE
  5
A37
330
A02
100
AcDbEntity
  8
ISOMETRIC
100
AcDbLine
 10
482.800713348
 20
287.496040762
 30
0.000000000
 11
482.180161787
 21
287.438254373
 31
0.000000000
  0
ELLIPSE
  5
A38
330
A02
100
AcDbEntity
  8
ISOMETRIC
100
AcDbEllipse
 10
481.904917142
 20
288.423512304
 30
0.000000000
 11
1.728571429
 21
0.000000000
 31
0.000000000
 40
0.577350269
 41
1.730709450
 42
3.141592654
  0
ELLIPSE
  5
A39
330
A02
100
AcDbEntity
  8
ISOMETRIC
100
AcDbEllipse
 10
481.904917142
 20
288.423512304
 30
0.000000000
 11
1.728571429
 21
0.000000000
 31
0.000000000
 40
0.577350269
 41
3.141592654
 42
4.872302104
  0
LINE
  5
A3A
330
A02
100
AcDbEntity
  8
ISOMETRIC
100
AcDbLine
 10
481.629672498
 20
289.408770234
 30
0.000000000
 11
482.250224060
 21
289.466556623
 31
0.000000000
  0
ELLIPSE
  5
A3B
330
A02
100
AcDbEntity
  8
ISOMETRIC
100
AcDbEllipse
 10
508.883220099
 20
288.452405498
 30
0.000000000
 11
-1.602857143
 21
0.000000000
 31
0.000000000
 40
0.577350269
 41
-3.141592654
 42
-0.785398163
  0
ELLIPSE
  5
A3C
330
A02
100
AcDbEntity
  8
ISOMETRIC
100
AcDbEllipse
 10
508.883220099
 20
288.452405498
 30
0.000000000
 11
-1.602857143
 21
0.000000000
 31
0.000000000
 40
0.577350269
 41
-0.000000000
 42
-3.141592654
  0
ELLIPSE
  5
A3D
330
A02
100
AcDbEntity
  8
ISOMETRIC
100
AcDbEllipse
 10
508.883220099
 20
288.452405498
 30
0.000000000
 11
-1.602857143
 21
0.000000000
 31
0.000000000
 40
0.577350269
 41
-0.785398163
 42
-0.000000000
  0
ELLIPSE
  5
A3E
330
A02
100
AcDbEntity
  8
ISOMETRIC
100
AcDbEllipse
 10
540.218152031
 20
255.220994655
 30
0.000000000
 11
1.728571429
 21
0.000000000
 31
0.000000000
 40
0.577350269
 41
5.497787144
 42
0.000000000
  0
ELLIPSE
  5
A3F
330
A02
100
AcDbEntity
  8
ISOMETRIC
100
AcDbEllipse
 10
540.218152031
 20
255.220994655
 30
0.000000000
 11
1.728571429
 21
0.000000000
 31
0.000000000
 40
0.577350269
 41
0.000000000
 42
2.356194490
  0
LINE
  5
A40
330
A02
100
AcDbEntity
  8
ISOMETRIC
100
AcDbLine
 10
541.440436610
 20
254.515308324
 30
0.000000000
 11
540.995969491
 21
254.258695113
 31
0.000000000
  0
ELLIPSE
  5
A41
330
A02
100
AcDbEntity
  8
ISOMETRIC
100
AcDbEllipse
 10
539.773684912
 20
254.964381443
 30
0.000000000
 11
1.728571429
 21
0.000000000
 31
0.000000000
 40
0.577350269
 41
2.356194490
 42
3.141592654
  0
ELLIPSE
  5
A42
330
A02
100
AcDbEntity
  8
ISOMETRIC
100
AcDbEllipse
 10
539.773684912
 20
254.964381443
 30
0.000000000
 11
1.728571429
 21
0.000000000
 31
0.000000000
 40
0.577350269
 41
3.141592654
 42
5.497787144
  0
LINE
  5
A43
330
A02
100
AcDbEntity
  8
ISOMETRIC
100
AcDbLine
 10
538.551400333
 20
255.670067774
 30
0.000000000
 11
538.995867452
 21
255.926680985
 31
0.000000000
  0
ELLIPSE
  5
A44
330
A02
100
AcDbEntity
  8
ISOMETRIC
100
AcDbEllipse
 10
597.826688501
 20
221.912108405
 30
0.000000000
 11
1.728571429
 21
0.000000000
 31
0.000000000
 40
0.577350269
 41
6.123272184
 42
0.000000000
  0
ELLIPSE
  5
A45
330
A02
100
AcDbEntity
  8
ISOMETRIC
100
AcDbEllipse
 10
597.826688501
 20
221.912108405
 30
0.000000000
 11
1.728571429
 21
0.000000000
 31
0.000000000
 40
0.577350269
 41
0.000000000
 42
2.981679530
  0
LINE
  5
A46
330
A02
100
AcDbEntity
  8
ISOMETRIC
100
AcDbLine
 10
599.533205295
 20
221.753195836
 30
0.000000000
 11
599.433116333
 21
221.394920225
 31
0.000000000
  0
ELLIPSE
  5
A47
330
A02
100
AcDbEntity
  8
ISOMETRIC
100
AcDbEllipse
 10
597.726599539
 20
221.553832794
 30
0.000000000
 11
1.728571429
 21
0.000000000
 31
0.000000000
 40
0.577350269
 41
2.981679530
 42
3.141592654
  0
ELLIPSE
  5
A48
330
A02
100
AcDbEntity
  8
ISOMETRIC
100
AcDbEllipse
 10
597.726599539
 20
221.553832794
 30
0.000000000
 11
1.728571429
 21
0.000000000
 31
0.000000000
 40
0.577350269
 41
3.141592654
 42
6.123272184
  0
LINE
  5
A49
330
A02
100
AcDbEntity
  8
ISOMETRIC
100
AcDbLine
 10
596.020082745
 20
221.712745364
 30
0.000000000
 11
596.120171706
 21
222.071020975
 31
0.000000000
  0
ELLIPSE
  5
A4A
330
A02
100
AcDbEntity
  8
ISOMETRIC
100
AcDbEllipse
 10
608.888322010
 20
294.867735777
 30
0.000000000
 11
-5.500000000
 21
0.000000000
 31
0.000000000
 40
0.577350269
 41
-3.141592654
 42
-0.785398163
  0
ELLIPSE
  5
A4B
330
A02
100
AcDbEntity
  8
ISOMETRIC
100
AcDbEllipse
 10
608.888322010
 20
294.867735777
 30
0.000000000
 11
-5.500000000
 21
0.000000000
 31
0.000000000
 40
0.577350269
 41
-0.000000000
 42
-3.141592654
  0
ELLIPSE
  5
A4C
330
A02
100
AcDbEntity
  8
ISOMETRIC
100
AcDbEllipse
 10
608.888322010
 20
294.867735777
 30
0.000000000
 11
-5.500000000
 21
0.000000000
 31
0.000000000
 40
0.577350269
 41
-0.785398163
 42
-0.000000000
  0
ELLIPSE
  5
A4D
330
A02
100
AcDbEntity
  8
ISOMETRIC
100
AcDbEllipse
 10
562.219274452
 20
334.642783505
 30
0.000000000
 11
-1.728571429
 21
0.000000000
 31
0.000000000
 40
0.577350269
 41
-3.141592654
 42
-0.785398163
  0
ELLIPSE
  5
A4E
330
A02
100
AcDbEntity
  8
ISOMETRIC
100
AcDbEllipse
 10
562.219274452
 20
334.642783505
 30
0.000000000
 11
-1.728571429
 21
0.000000000
 31
0.000000000
 40
0.577350269
 41
-0.000000000
 42
-3.141592654
  0
ELLIPSE
  5
A4F
330
A02
100
AcDbEntity
  8
ISOMETRIC
100
AcDbEllipse
 10
562.219274452
 20
334.642783505
 30
0.000000000
 11
-1.728571429
 21
0.000000000
 31
0.000000000
 40
0.577350269
 41
-0.785398163
 42
-0.000000000
  0
ELLIPSE
  5
A50
330
A02
100
AcDbEntity
  8
ISOMETRIC
100
AcDbEllipse
 10
631.111677990
 20
346.190378007
 30
0.000000000
 11
-15.714285714
 21
0.000000000
 31
0.000000000
 40
0.577350269
 41
-3.141592654
 42
-0.785398163
  0
ELLIPSE
  5
A51
330
A02
100
AcDbEntity
  8
ISOMETRIC
100
AcDbEllipse
 10
631.111677990
 20
346.190378007
 30
0.000000000
 11
-15.714285714
 21
0.000000000
 31
0.000000000
 40
0.577350269
 41
-0.000000000
 42
-3.141592654
  0
ELLIPSE
  5
A52
330
A02
100
AcDbEntity
  8
ISOMETRIC
100
AcDbEllipse
 10
631.111677990
 20
346.190378007
 30
0.000000000
 11
-15.714285714
 21
0.000000000
 31
0.000000000
 40
0.577350269
 41
-0.785398163
 42
-0.000000000
  0
ELLIPSE
  5
A53
330
A02
100
AcDbEntity
  8
ISOMETRIC
100
AcDbEllipse
 10
642.173311499
 20
380.654023706
 30
0.000000000
 11
1.728571429
 21
0.000000000
 31
0.000000000
 40
0.577350269
 41
2.981679530
 42
3.141592654
  0
ELLIPSE
  5
A54
330
A02
100
AcDbEntity
  8
ISOMETRIC
100
AcDbEllipse
 10
642.173311499
 20
380.654023706
 30
0.000000000
 11
1.728571429
 21
0.000000000
 31
0.000000000
 40
0.577350269
 41
3.141592654
 42
6.123272184
  0
LINE
  5
A55
330
A02
100
AcDbEntity
  8
ISOMETRIC
100
AcDbLine
 10
640.466794705
 20
380.812936276
 30
0.000000000
 11
640.566883667
 21
381.171211887
 31
0.000000000
  0
ELLIPSE
  5
A56
330
A02
100
AcDbEntity
  8
ISOMETRIC
100
AcDbEllipse
 10
642.273400461
 20
381.012299317
 30
0.000000000
 11
1.728571429
 21
0.000000000
 31
0.000000000
 40
0.577350269
 41
6.123272184
 42
0.000000000
  0
ELLIPSE
  5
A57
330
A02
100
AcDbEntity
  8
ISOMETRIC
100
AcDbEllipse
 10
642.273400461
 20
381.012299317
 30
0.000000000
 11
1.728571429
 21
0.000000000
 31
0.000000000
 40
0.577350269
 41
0.000000000
 42
2.981679530
  0
LINE
  5
A58
330
A02
100
AcDbEntity
  8
ISOMETRIC
100
AcDbLine
 10
643.979917255
 20
380.853386748
 30
0.000000000
 11
643.879828294
 21
380.495111137
 31
0.000000000
  0
ELLIPSE
  5
A59
330
A02
100
AcDbEntity
  8
ISOMETRIC
100
AcDbEllipse
 10
677.780725548
 20
267.923348606
 30
0.000000000
 11
-1.728571429
 21
0.000000000
 31
0.000000000
 40
0.577350269
 41
-3.141592654
 42
-0.785398163
  0
ELLIPSE
  5
A5A
330
A02
100
AcDbEntity
  8
ISOMETRIC
100
AcDbEllipse
 10
677.780725548
 20
267.923348606
 30
0.000000000
 11
-1.728571429
 21
0.000000000
 31
0.000000000
 40
0.577350269
 41
-0.000000000
 42
-3.141592654
  0
ELLIPSE
  5
A5B
330
A02
100
AcDbEntity
  8
ISOMETRIC
100
AcDbEllipse
 10
677.780725548
 20
267.923348606
 30
0.000000000
 11
-1.728571429
 21
0.000000000
 31
0.000000000
 40
0.577350269
 41
-0.785398163
 42
-0.000000000
  0
ELLIPSE
  5
A5C
330
A02
100
AcDbEntity
  8
ISOMETRIC
100
AcDbEllipse
 10
699.781847969
 20
347.345137457
 30
0.000000000
 11
1.728571429
 21
0.000000000
 31
0.000000000
 40
0.577350269
 41
2.356194490
 42
3.141592654
  0
ELLIPSE
  5
A5D
330
A02
100
AcDbEntity
  8
ISOMETRIC
100
AcDbEllipse
 10
699.781847969
 20
347.345137457
 30
0.000000000
 11
1.728571429
 21
0.000000000
 31
0.000000000
 40
0.577350269
 41
3.141592654
 42
5.497787144
  0
LINE
  5
A5E
330
A02
100
AcDbEntity
  8
ISOMETRIC
100
AcDbLine
 10
698.559563390
 20
348.050823788
 30
0.000000000
 11
699.004030509
 21
348.307436999
 31
0.000000000
  0
ELLIPSE
  5
A5F
330
A02
100
AcDbEntity
  8
ISOMETRIC
100
AcDbEllipse
 10
700.226315088
 20
347.601750668
 30
0.000000000
 11
1.728571429
 21
0.000000000
 31
0.000000000
 40
0.577350269
 41
5.497787144
 42
0.000000000
  0
ELLIPSE
  5
A60
330
A02
100
AcDbEntity
  8
ISOMETRIC
100
AcDbEllipse
 10
700.226315088
 20
347.601750668
 30
0.000000000
 11
1.728571429
 21
0.000000000
 31
0.000000000
 40
0.577350269
 41
0.000000000
 42
2.356194490
  0
LINE
  5
A61
330
A02
100
AcDbEntity
  8
ISOMETRIC
100
AcDbLine
 10
701.448599667
 20
346.896064337
 30
0.000000000
 11
701.004132548
 21
346.639451126
 31
0.000000000
  0
ELLIPSE
  5
A62
330
A02
100
AcDbEntity
  8
ISOMETRIC
100
AcDbEllipse
 10
697.781745931
 20
307.698396334
 30
0.000000000
 11
-15.714285714
 21
0.000000000
 31
0.000000000
 40
0.577350269
 41
-3.141592654
 42
-0.785398163
  0
ELLIPSE
  5
A63
330
A02
100
AcDbEntity
  8
ISOMETRIC
100
AcDbEllipse
 10
697.781745931
 20
307.698396334
 30
0.000000000
 11
-15.714285714
 21
0.000000000
 31
0.000000000
 40
0.577350269
 41
-0.000000000
 42
-3.141592654
  0
ELLIPSE
  5
A64
330
A02
100
AcDbEntity
  8
ISOMETRIC
100
AcDbEllipse
 10
697.781745931
 20
307.698396334
 30
0.000000000
 11
-15.714285714
 21
0.000000000
 31
0.000000000
 40
0.577350269
 41
-0.785398163
 42
-0.000000000
  0
ELLIPSE
  5
A65
330
A02
100
AcDbEntity
  8
ISOMETRIC
100
AcDbEllipse
 10
757.474531296
 20
314.084833419
 30
0.000000000
 11
1.728571429
 21
0.000000000
 31
0.000000000
 40
0.577350269
 41
1.730709450
 42
3.141592654
  0
ELLIPSE
  5
A66
330
A02
100
AcDbEntity
  8
ISOMETRIC
100
AcDbEllipse
 10
757.474531296
 20
314.084833419
 30
0.000000000
 11
1.728571429
 21
0.000000000
 31
0.000000000
 40
0.577350269
 41
3.141592654
 42
4.872302104
  0
LINE
  5
A67
330
A02
100
AcDbEntity
  8
ISOMETRIC
100
AcDbLine
 10
757.199286652
 20
315.070091349
 30
0.000000000
 11
757.819838213
 21
315.127877738
 31
0.000000000
  0
ELLIPSE
  5
A68
330
A02
100
AcDbEntity
  8
ISOMETRIC
100
AcDbEllipse
 10
758.095082858
 20
314.142619808
 30
0.000000000
 11
1.728571429
 21
0.000000000
 31
0.000000000
 40
0.577350269
 41
4.872302104
 42
0.000000000
  0
ELLIPSE
  5
A69
330
A02
100
AcDbEntity
  8
ISOMETRIC
100
AcDbEllipse
 10
758.095082858
 20
314.142619808
 30
0.000000000
 11
1.728571429
 21
0.000000000
 31
0.000000000
 40
0.577350269
 41
0.000000000
 42
1.730709450
  0
LINE
  5
A6A
330
A02
100
AcDbEntity
  8
ISOMETRIC
100
AcDbLine
 10
758.370327502
 20
313.157361877
 30
0.000000000
 11
757.749775940
 21
313.099575488
 31
0.000000000
  0
LINE
  5
A6B
330
A02
100
AcDbEntity
  8
ISOMETRIC
100
AcDbLine
 10
784.452834253
 20
311.547594502
 30
0.000000000
 11
784.452834253
 21
314.113726613
 31
0.000000000
  0
LINE
  5
A6C
330
A02
100
AcDbEntity
  8
ISOMETRIC
100
AcDbLine
 10
597.776644020
 20
203.770045819
 30
0.000000000
 11
784.452834253
 21
311.547594502
 31
0.000000000
  0
ELLIPSE
  5
A6D
330
A02
100
AcDbEntity
  8
ISOMETRIC
100
AcDbEllipse
 10
608.888322010
 20
292.301603666
 30
0.000000000
 11
-5.500000000
 21
0.000000000
 31
0.000000000
 40
0.577350269
 41
-2.725640567
 42
-0.785398163
  0
ELLIPSE
  5
A6E
330
A02
100
AcDbEntity
  8
ISOMETRIC
100
AcDbEllipse
 10
608.888322010
 20
292.301603666
 30
0.000000000
 11
-5.500000000
 21
0.000000000
 31
0.000000000
 40
0.577350269
 41
-0.785398163
 42
-0.415952087
  0
ELLIPSE
  5
A6F
330
A02
100
AcDbEntity
  8
ISOMETRIC
100
AcDbEllipse
 10
631.111677990
 20
343.624245895
 30
0.000000000
 11
-15.714285714
 21
0.000000000
 31
0.000000000
 40
0.577350269
 41
-2.999695599
 42
-0.785398163
  0
ELLIPSE
  5
A70
330
A02
100
AcDbEntity
  8
ISOMETRIC
100
AcDbEllipse
 10
631.111677990
 20
343.624245895
 30
0.000000000
 11
-15.714285714
 21
0.000000000
 31
0.000000000
 40
0.577350269
 41
-0.785398163
 42
-0.141897055
  0
ELLIPSE
  5
A71
330
A02
100
AcDbEntity
  8
ISOMETRIC
100
AcDbEllipse
 10
697.781745931
 20
305.132264223
 30
0.000000000
 11
-15.714285714
 21
0.000000000
 31
0.000000000
 40
0.577350269
 41
-2.999695599
 42
-0.785398163
  0
ELLIPSE
  5
A72
330
A02
100
AcDbEntity
  8
ISOMETRIC
100
AcDbEllipse
 10
697.781745931
 20
305.132264223
 30
0.000000000
 11
-15.714285714
 21
0.000000000
 31
0.000000000
 40
0.577350269
 41
-0.785398163
 42
-0.141897055
  0
LINE
  5
A73
330
A02
100
AcDbEntity
  8
ISOMETRIC
100
AcDbLine
 10
482.250224060
 20
289.466556623
 30
0.000000000
 11
482.250224060
 21
287.444778643
 31
0.000000000
  0
LINE
  5
A74
330
A02
100
AcDbEntity
  8
ISOMETRIC
100
AcDbLine
 10
481.629672498
 20
289.408770234
 30
0.000000000
 11
481.629672498
 21
287.438254373
 31
0.000000000
  0
LINE
  5
A75
330
A02
100
AcDbEntity
  8
ISOMETRIC
100
AcDbLine
 10
538.995867452
 20
255.926680985
 30
0.000000000
 11
538.995867452
 21
254.073135278
 31
0.000000000
  0
LINE
  5
A76
330
A02
100
AcDbEntity
  8
ISOMETRIC
100
AcDbLine
 10
538.551400333
 20
255.670067774
 30
0.000000000
 11
538.551400333
 21
254.258695113
 31
0.000000000
  0
LINE
  5
A77
330
A02
100
AcDbEntity
  8
ISOMETRIC
100
AcDbLine
 10
596.120171706
 20
222.071020975
 30
0.000000000
 11
596.120171706
 21
221.185345435
 31
0.000000000
  0
LINE
  5
A78
330
A02
100
AcDbEntity
  8
ISOMETRIC
100
AcDbLine
 10
596.020082745
 20
221.712745364
 30
0.000000000
 11
596.020082745
 21
221.394920225
 31
0.000000000
  0
LINE
  5
A79
330
A02
100
AcDbEntity
  8
ISOMETRIC
100
AcDbLine
 10
640.466794705
 20
380.812936276
 30
0.000000000
 11
640.466794705
 21
380.495111137
 31
0.000000000
  0
LINE
  5
A7A
330
A02
100
AcDbEntity
  8
ISOMETRIC
100
AcDbLine
 10
640.566883667
 20
381.171211887
 30
0.000000000
 11
640.566883667
 21
380.285536347
 31
0.000000000
  0
LINE
  5
A7B
330
A02
100
AcDbEntity
  8
ISOMETRIC
100
AcDbLine
 10
698.559563390
 20
348.050823788
 30
0.000000000
 11
698.559563390
 21
346.639451126
 31
0.000000000
  0
LINE
  5
A7C
330
A02
100
AcDbEntity
  8
ISOMETRIC
100
AcDbLine
 10
699.004030509
 20
348.307436999
 30
0.000000000
 11
699.004030509
 21
346.453891291
 31
0.000000000
  0
LINE
  5
A7D
330
A02
100
AcDbEntity
  8
ISOMETRIC
100
AcDbLine
 10
757.199286652
 20
315.070091349
 30
0.000000000
 11
757.199286652
 21
313.099575488
 31
0.000000000
  0
LINE
  5
A7E
330
A02
100
AcDbEntity
  8
ISOMETRIC
100
AcDbLine
 10
757.819838213
 20
315.127877738
 30
0.000000000
 11
757.819838213
 21
313.106099758
 31
0.000000000
  0
DIMENSION
  5
A7F
330
A02
100
AcDbEntity
  8
DimWidth
100
AcDbDimension
  2
*DimWidth
 10
220.000000000
 20
70.000000000
 30
0.000000000
 11
220.000000000
 21
75.000000000
 31
0.000000000
 70
32
  1
640
  3
STANDARD
100
AcDbAlignedDimension
 13
52.380952381
 23
100.000000000
 33
0.000000000
 14
387.619047619
 24
100.000000000
 34
0.000000000
100
AcDbRotatedDimension
  0
DIMENSION
  5
A89
330
A02
100
AcDbEntity
  8
DimHeight
100
AcDbDimension
  2
*DimHeight
 10
407.619047619
 20
320.000000000
 30
0.000000000
 11
412.619047619
 21
320.000000000
 31
0.000000000
 70
32
  1
840
  3
STANDARD
100
AcDbAlignedDimension
 13
52.380952381
 23
100.000000000
 33
0.000000000
 14
52.380952381
 24
540.000000000
 34
0.000000000
 50
90
100
AcDbRotatedDimension
  0
DIMENSION
  5
A93
330
A02
100
AcDbEntity
  8
DimPen0Diam
100
AcDbDimension
  2
*DimPen0Diam
 10
124.865997985
 20
404.473430102
 30
0.000000000
 11
85.238095238
 21
368.571428571
 31
0.000000000
 70
3
  1
⌀100.0 H10 (power_conduit_left) ± 0.14
  3
STANDARD
100
AcDbDiametricDimension
 15
157.991144872
 25
445.050379422
 35
0.000000000
 40
0
  0
DIMENSION
  5
A9B
330
A02
100
AcDbEntity
  8
DimPen1Diam
100
AcDbDimension
  2
*DimPen1Diam
 10
166.496898954
 20
417.177710792
 30
0.000000000
 11
354.761904762
 21
368.571428571
 31
0.000000000
 70
3
  1
⌀100.0 H10 (power_conduit_right) ± 0.14
  3
STANDARD
100
AcDbDiametricDimension
 15
116.360243903
 25
432.346098731
 35
0.000000000
 40
0
  0
DIMENSION
  5
AA3
330
A02
100
AcDbEntity
  8
DimPen2Diam
100
AcDbDimension
  2
*DimPen2Diam
 10
227.344707932
 20
299.294324915
 30
0.000000000
 11
259.166666667
 21
332.976190476
 31
0.000000000
 70
3
  1
⌀35.0 H10 (data_conduit) ± 0.1
  3
STANDARD
100
AcDbDiametricDimension
 15
212.655292068
 25
288.324722704
 35
0.000000000
 40
0
  0
DIMENSION
  5
AAB
330
A02
100
AcDbEntity
  8
DimPen3Diam
100
AcDbDimension
  2
*DimPen3Diam
 10
84.981634861
 20
317.368262493
 30
0.000000000
 11
147.909523810
 21
195.528571429
 31
0.000000000
 70
3
  1
⌀11.0 TAP M12 THRU
  3
STANDARD
100
AcDbDiametricDimension
 15
82.637412758
 25
322.631737507
 35
0.000000000
 40
0
  0
DIMENSION
  5
AB3
330
A02
100
AcDbEntity
  8
DimBolt
100
AcDbDimension
  2
*DimBolt
 10
86.214090935
 20
321.586802937
 30
0.000000000
 11
111.690476190
 21
347.880952381
 31
0.000000000
 70
3
  1
8X ⌀11.0 H9 ± 0.04
  3
STANDARD
100
AcDbDiametricDimension
 15
81.404956684
 25
318.413197063
 35
0.000000000
 40
0
  0
TEXT
  5
ABB
330
A02
100
AcDbEntity
  8
PositionBlock
100
AcDbText
 10
470.000000000
 20
70.000000000
 30
0.000000000
 40
2.800000000
  1
POSITIONS (FROM DATUM B/C, mm):
  7
STANDARD
 72
1
 11
470.000000000
 21
70.000000000
 31
0.000000000
100
AcDbText
  0
TEXT
  5
ABC
330
A02
100
AcDbEntity
  8
SlotNote
100
AcDbText
 10
460.000000000
 20
150.000000000
 30
0.000000000
 40
3.000000000
  1
SLOT 13x⌀11 H9
  7
STANDARD
 72
1
 11
460.000000000
 21
150.000000000
 31
0.000000000
100
AcDbText
  0
DIMENSION
  5
ABD
330
A02
100
AcDbEntity
  8
DimThickness
100
AcDbDimension
  2
*DimThickness
 10
625.000000000
 20
480.000000000
 30
0.000000000
 11
630.000000000
 21
480.000000000
 31
0.000000000
 70
32
  1
10
  3
STANDARD
100
AcDbAlignedDimension
 13
432.380952381
 23
477.380952381
 33
0.000000000
 14
432.380952381
 24
482.619047619
 34
0.000000000
 50
90
100
AcDbRotatedDimension
  0
CIRCLE
  5
AC7
330
A02
100
AcDbEntity
  8
DetailSlot
100
AcDbCircle
 10
220.000000000
 20
130.000000000
 30
0.000000000
 40
60.600000000
  0
ARC
  5
AC8
330
A02
100
AcDbEntity
  8
DetailSlot
100
AcDbCircle
 10
217.658037785
 20
126.757283086
 30
0.000000000
 40
22.000000000
100
AcDbArc
 50
144.162347046
 51
-35.837652954
  0
LINE
  5
AC9
330
A02
100
AcDbEntity
  8
DetailSlot
100
AcDbLine
 10
199.823094759
 20
139.638075271
 30
0.000000000
 11
204.507019190
 21
146.123509099
 31
0.000000000
  0
LINE
  5
ACA
330
A02
100
AcDbEntity
  8
DetailSlot
100
AcDbLine
 10
240.176905240
 20
120.361924729
 30
0.000000000
 11
235.492980809
 21
113.876490902
 31
0.000000000
  0
ARC
  5
ACB
330
A02
100
AcDbEntity
  8
DetailSlot
100
AcDbCircle
 10
222.341962215
 20
133.242716914
 30
0.000000000
 40
22.000000000
100
AcDbArc
 50
-35.837652954
 51
144.162347046
  0
DIMENSION
  5
ACC
330
A02
100
AcDbEntity
  8
DimSlotWidth
100
AcDbDimension
  2
*DimSlotWidth
 10
239.584574838
 20
124.960905382
 30
0.000000000
 11
275.000000000
 21
130.000000000
 31
0.000000000
 70
3
  1
⌀11.0 H9 ± 0.04
  3
STANDARD
100
AcDbDiametricDimension
 15
195.731500731
 25
128.553660791
 35
0.000000000
 40
0
  0
TEXT
  5
AD4
330
A02
100
AcDbEntity
  8
DetailTyp
100
AcDbText
 10
220.000000000
 20
40.000000000
 30
0.000000000
 40
2.800000000
  1
TYP 6 PLACES
  7
STANDARD
 72
1
 11
220.000000000
 21
40.000000000
 31
0.000000000
100
AcDbText
  0
TEXT
  5
AD5
330
A02
100
AcDbEntity
  8
LabelDETAIL
100
AcDbText
 10
220.000000000
 20
195.000000000
 30
0.000000000
 40
5.000000000
  1
DETAIL A  (4:1)
  7
STANDARD
 72
1
 11
220.000000000
 21
195.000000000
 31
0.000000000
100
AcDbText
  0
TEXT
  5
AD6
330
A02
100
AcDbEntity
  8
Notes
100
AcDbText
 10
120.000000000
 20
480.000000000
 30
0.000000000
 40
3.000000000
  1
NOTES:
  7
STANDARD
 72
1
 11
120.000000000
 21
480.000000000
 31
0.000000000
100
AcDbText
  0
TEXT
  5
AD7
330
A02
100
AcDbEntity
  8
LabelTOP
100
AcDbText
 10
220.000000000
 20
270.000000000
 30
0.000000000
 40
5.000000000
  1
TOP
  7
STANDARD
 72
1
 11
220.000000000
 21
270.000000000
 31
0.000000000
100
AcDbText
  0
TEXT
  5
AD8
330
A02
100
AcDbEntity
  8
LabelFRONT
100
AcDbText
 10
600.000000000
 20
430.000000000
 30
0.000000000
 40
5.000000000
  1
FRONT
  7
STANDARD
 72
1
 11
600.000000000
 21
430.000000000
 31
0.000000000
100
AcDbText
  0
TEXT
  5
AD9
330
A02
100
AcDbEntity
  8
LabelISOMETRIC
100
AcDbText
 10
620.000000000
 20
250.000000000
 30
0.000000000
 40
5.000000000
  1
ISOMETRIC
  7
STANDARD
 72
1
 11
620.000000000
 21
250.000000000
 31
0.000000000
100
AcDbText
  0
ENDSEC
  0
SECTION
  2
OBJECTS
  0
DICTIONARY
  5
F000
330
0
100
AcDbDictionary
  3
ACAD_GROUP
350
F001
  0
DICTIONARY
  5
F001
330
F000
100
AcDbDictionary
  0
ENDSEC
  0
EOF