999
FreeCAD v1.0 39285 (Git)
  0
SECTION
  2
HEADER
  9
$ACADVER
  1
AC1014
  9
$ACADMAINTVER
 70
     9
  9
$DWGCODEPAGE
  3
ANSI_1252
  9
$TEXTSTYLE
  7
STANDARD
  9
$DIMSTYLE
  2
STANDARD
  9
$DIMTXSTY
  7
STANDARD
  9
$CMLSTYLE
  2
STANDARD
  9
$LUNITS
 70
2
  9
$INSUNITS
 70
4
  9
$PEXTMAX
 10
50
 20
50
 30
50
  9
$PEXTMIN
 10
0
 20
0
 30
0
  9
$HANDSEED
  5
FFFF
  0
ENDSEC
  0
SECTION
  2
CLASSES
  0
CLASS
  1
ACDBDICTIONARYWDFLT
  2
AcDbDictionaryWithDefault
  3
ObjectDBX Classes
 90
        0
280
     0
281
     0
  0
CLASS
  1
XRECORD
  2
AcDbXrecord
  3
ObjectDBX Classes
 90
        0
280
     0
281
     0
  0
CLASS
  1
LWPOLYLINE
  2
AcDbPolyline
  3
ObjectDBX Classes
 90
        0
280
     0
281
     1
  0
ENDSEC
  0
SECTION
  2
TABLES
  0
TABLE
  2
VPORT
  5
20
330
0
100
AcDbSymbolTable
 70
     1
  0
VPORT
  5
21
330
20
100
AcDbSymbolTableRecord
100
AcDbViewportTableRecord
  2
*ACTIVE
 70
     0
  0
ENDTAB
  0
TABLE
  2
LTYPE
  5
22
330
0
100
AcDbSymbolTable
 70
     1
  0
LTYPE
  5
23
330
21
100
AcDbSymbolTableRecord
100
AcDbLinetypeTableRecord
  2
BYBLOCK
 70
     0
  3

 72
    65
 73
     0
 40
0.0
  0
LTYPE
  5
24
330
21
100
AcDbSymbolTableRecord
100
AcDbLinetypeTableRecord
  2
BYLAYER
 70
     0
  3

 72
    65
 73
     0
 40
0.0
  0
LTYPE
  5
25
330
21
100
AcDbSymbolTableRecord
100
AcDbLinetypeTableRecord
  2
CONTINUOUS
 70
     0
  3
Solid line
 72
    65
 73
     0
 40
0.0
  0
ENDTAB
  0
TABLE
  2
LAYER
  5
ACB
330
0
100
AcDbSymbolTable
 70
16
  0
LAYER
  5
ACC
330
ACB
100
AcDbSymbolTableRecord
100
AcDbLayerTableRecord
  2
0
 70
   0
 62
   7
  6
CONTINUOUS
  0
LAYER
  5
ACD
330
ACB
100
AcDbSymbolTableRecord
100
AcDbLayerTableRecord
  2
TOP
 70
    0
 62
    7
  6
CONTINUOUS
  0
LAYER
  5
ACE
330
ACB
100
AcDbSymbolTableRecord
100
AcDbLayerTableRecord
  2
FRONT
 70
    0
 62
    7
  6
CONTINUOUS
  0
LAYER
  5
ACF
330
ACB
100
AcDbSymbolTableRecord
100
AcDbLayerTableRecord
  2
ISOMETRIC
 70
    0
 62
    7
  6
CONTINUOUS
  0
LAYER
  5
AD0
330
ACB
100
AcDbSymbolTableRecord
100
AcDbLayerTableRecord
  2
DimWidth
 70
    0
 62
    7
  6
CONTINUOUS
  0
LAYER
  5
AD1
330
ACB
100
AcDbSymbolTableRecord
100
AcDbLayerTableRecord
  2
DimHeight
 70
    0
 62
    7
  6
CONTINUOUS
  0
LAYER
  5
AD2
330
ACB
100
AcDbSymbolTableRecord
100
AcDbLayerTableRecord
  2
DimPen0Diam
 70
    0
 62
    7
  6
CONTINUOUS
  0
LAYER
  5
AD3
330
ACB
100
AcDbSymbolTableRecord
100
AcDbLayerTableRecord
  2
DimPen1Diam
 70
    0
 62
    7
  6
CONTINUOUS
  0
LAYER
  5
AD4
330
ACB
100
AcDbSymbolTableRecord
100
AcDbLayerTableRecord
  2
DimPen2Diam
 70
    0
 62
    7
  6
CONTINUOUS
  0
LAYER
  5
AD5
330
ACB
100
AcDbSymbolTableRecord
100
AcDbLayerTableRecord
  2
DimBolt
 70
    0
 62
    7
  6
CONTINUOUS
  0
LAYER
  5
AD6
330
ACB
100
AcDbSymbolTableRecord
100
AcDbLayerTableRecord
  2
SlotNote
 70
    0
 62
    7
  6
CONTINUOUS
  0
LAYER
  5
AD7
330
ACB
100
AcDbSymbolTableRecord
100
AcDbLayerTableRecord
  2
DimThickness
 70
    0
 62
    7
  6
CONTINUOUS
  0
LAYER
  5
AD8
330
ACB
100
AcDbSymbolTableRecord
100
AcDbLayerTableRecord
  2
Notes
 70
    0
 62
    7
  6
CONTINUOUS
  0
LAYER
  5
AD9
330
ACB
100
AcDbSymbolTableRecord
100
AcDbLayerTableRecord
  2
LabelTOP
 70
    0
 62
    7
  6
CONTINUOUS
  0
LAYER
  5
ADA
330
ACB
100
AcDbSymbolTableRecord
100
AcDbLayerTableRecord
  2
LabelFRONT
 70
    0
 62
    7
  6
CONTINUOUS
  0
LAYER
  5
ADB
330
ACB
100
AcDbSymbolTableRecord
100
AcDbLayerTableRecord
  2
LabelISOMETRIC
 70
    0
 62
    7
  6
CONTINUOUS
  0
ENDTAB
  0
TABLE
  2
STYLE
  5
70
330
0
100
AcDbSymbolTable
 70
     2
  0
STYLE
  5
71
330
70
100
AcDbSymbolTableRecord
100
AcDbTextStyleTableRecord
  2
STANDARD
 70
     0
 40
0.0
 41
1.0
 50
0.0
 71
     0
 42
2.5
  3
arial.ttf
  4

  0
STYLE
  5
72
330
70
100
AcDbSymbolTableRecord
100
AcDbTextStyleTableRecord
  2
ANNOTATIVE
 70
     0
 40
0.0
 41
1.0
 50
0.0
 71
     0
 42
2.5
  3
arial.ttf
  4

  0
ENDTAB
  0
TABLE
  2
VIEW
  5
73
330
0
100
AcDbSymbolTable
 70
     0
  0
ENDTAB
  0
TABLE
  2
UCS
  5
74
330
0
100
AcDbSymbolTable
 70
     0
  0
ENDTAB
  0
TABLE
  2
APPID
  5
75
330
0
100
AcDbSymbolTable
 70
     2
  0
APPID
  5
76
330
75
100
AcDbSymbolTableRecord
100
AcDbRegAppTableRecord
  2
ACAD
 70
     0
  0
APPID
  5
77
330
75
100
AcDbSymbolTableRecord
100
AcDbRegAppTableRecord
  2
ACADANNOTATIVE
 70
     0
  0
ENDTAB
  0
TABLE
  2
DIMSTYLE
  5
78
330
0
100
AcDbSymbolTable
 70
     2
  0
DIMSTYLE
105
79
330
78
100
AcDbSymbolTableRecord
100
AcDbDimStyleTableRecord
  2
STANDARD
 70
     0
  3

  4

  5

  6

  7

 40
0.0
 41
2.5
 42
0.625
 43
3.75
 44
1.25
 45
0.0
 46
0.0
 47
0.0
 48
0.0
140
2.5
141
2.5
142
0.0
143
0.03937007874016
144
1.0
145
0.0
146
1.0
147
0.625
 71
     0
 72
     0
 73
     0
 74
     0
 75
     0
 76
     0
 77
     1
 78
     8
170
     0
171
     3
172
     1
173
     0
174
     0
175
     0
176
     0
177
     0
178
     0
270
     2
271
     2
272
     2
273
     2
274
     3
340
71
275
     0
280
     0
281
     0
282
     0
283
     0
284
     8
285
     0
286
     0
287
     3
288
     0
  0
ENDTAB
  0
TABLE
  2
BLOCK_RECORD
  5
A01
330
0
100
AcDbSymbolTable
  70
5
  0
BLOCK_RECORD
  5
A02
330
A01
100
AcDbSymbolTableRecord
100
AcDbBlockTableRecord
  2
*MODEL_SPACE
  0
BLOCK_RECORD
  5
A03
330
A01
100
AcDbSymbolTableRecord
100
AcDbBlockTableRecord
  2
*PAPER_SPACE
  0
BLOCK_RECORD
  5
A89
330
A01
100
AcDbSymbolTableRecord
100
AcDbBlockTableRecord
  2
*DimWidth
  0
BLOCK_RECORD
  5
A93
330
A01
100
AcDbSymbolTableRecord
100
AcDbBlockTableRecord
  2
*DimHeight
  0
BLOCK_RECORD
  5
A9D
330
A01
100
AcDbSymbolTableRecord
100
AcDbBlockTableRecord
  2
*DimPen0Diam
  0
BLOCK_RECORD
  5
AA5
330
A01
100
AcDbSymbolTableRecord
100
AcDbBlockTableRecord
  2
*DimPen1Diam
  0
BLOCK_RECORD
  5
AAD
330
A01
100
AcDbSymbolTableRecord
100
AcDbBlockTableRecord
  2
*DimPen2Diam
  0
BLOCK_RECORD
  5
AB5
330
A01
100
AcDbSymbolTableRecord
100
AcDbBlockTableRecord
  2
*DimBolt
  0
BLOCK_RECORD
  5
ABE
330
A01
100
AcDbSymbolTableRecord
100
AcDbBlockTableRecord
  2
*DimThickness
  0
ENDTAB
  0
ENDSEC
  0
SECTION
  2
BLOCKS
  0
BLOCK
  5
A04
330
A02
100
AcDbEntity
  8
0
100
AcDbBlockBegin
  2
*MODEL_SPACE
 70
   0
 10
0
 20
0
 30
0
  3
*MODEL_SPACE
  1
 
  0
ENDBLK
  5
A05
330
A02
100
AcDbEntity
  8
0
100
AcDbBlockEnd
  0
BLOCK
  5
A06
330
A03
100
AcDbEntity
 67
1
  8
0
100
AcDbBlockBegin
  2
*PAPER_SPACE
 70
   0
 10
0
 20
0
 30
0
  3
*PAPER_SPACE
  1
 
  0
ENDBLK
  5
A07
330
A03
100
AcDbEntity
 67
    1
  8
0
100
AcDbBlockEnd
  0
BLOCK
  5
A8A
330
A89
100
AcDbEntity
  8
DimWidth
100
AcDbBlockBegin
  2
*DimWidth
 70
   1
 10
0
 20
0
 30
0
  3
*DimWidth
  1
 
  0
LINE
  5
A8B
330
A89
100
AcDbEntity
  8
DimWidth
100
AcDbLine
 10
387.619
 20
100
 30
0
 11
387.619
 21
315
 31
0
  0
LINE
  5
A8C
330
A89
100
AcDbEntity
  8
DimWidth
100
AcDbLine
 10
52.381
 20
100
 30
0
 11
52.381
 21
315
 31
0
  0
LINE
  5
A8D
330
A89
100
AcDbEntity
  8
DimWidth
100
AcDbLine
 10
52.381
 20
315
 30
0
 11
387.619
 21
315
 31
0
  0
TEXT
  5
A8E
330
A89
100
AcDbEntity
  8
DimWidth
100
AcDbText
 10
220
 20
320
 30
0
 40
3.5
  1
640
  7
STANDARD
 72
1
 11
220
 21
315
 31
0
100
AcDbText
  0
SOLID
  5
A8F
330
A89
100
AcDbEntity
  8
0
 62
     0
100
AcDbTrace
 10
47.381
 20
315.417
 30
0
 11
47.381
 21
314.583
 31
0
 12
52.381
 22
315
 32
0
 13
52.381
 23
315
 33
0
  0
SOLID
  5
A90
330
A89
100
AcDbEntity
  8
0
 62
     0
100
AcDbTrace
 10
392.619
 20
315.417
 30
0
 11
392.619
 21
314.583
 31
0
 12
387.619
 22
315
 32
0
 13
387.619
 23
315
 33
0
  0
ENDBLK
  5
A91
330
A89
100
AcDbEntity
  8
DimWidth
100
AcDbBlockEnd
  0
BLOCK
  5
A94
330
A93
100
AcDbEntity
  8
DimHeight
100
AcDbBlockBegin
  2
*DimHeight
 70
   1
 10
0
 20
0
 30
0
  3
*DimHeight
  1
 
  0
LINE
  5
A95
330
A93
100
AcDbEntity
  8
DimHeight
100
AcDbLine
 10
52.381
 20
540
 30
0
 11
215
 21
540
 31
0
  0
LINE
  5
A96
330
A93
100
AcDbEntity
  8
DimHeight
100
AcDbLine
 10
52.381
 20
100
 30
0
 11
215
 21
100
 31
0
  0
LINE
  5
A97
330
A93
100
AcDbEntity
  8
DimHeight
100
AcDbLine
 10
215
 20
100
 30
0
 11
215
 21
540
 31
0
  0
TEXT
  5
A98
330
A93
100
AcDbEntity
  8
DimHeight
100
AcDbText
 10
220
 20
320
 30
0
 40
3.5
  1
840
  7
STANDARD
 72
1
 11
215
 21
320
 31
0
100
AcDbText
  0
SOLID
  5
A99
330
A93
100
AcDbEntity
  8
0
 62
     0
100
AcDbTrace
 10
215.417
 20
95
 30
0
 11
214.583
 21
95
 31
0
 12
215
 22
100
 32
0
 13
215
 23
100
 33
0
  0
SOLID
  5
A9A
330
A93
100
AcDbEntity
  8
0
 62
     0
100
AcDbTrace
 10
215.417
 20
545
 30
0
 11
214.583
 21
545
 31
0
 12
215
 22
540
 32
0
 13
215
 23
540
 33
0
  0
ENDBLK
  5
A9B
330
A93
100
AcDbEntity
  8
DimHeight
100
AcDbBlockEnd
  0
BLOCK
  5
A9E
330
A9D
100
AcDbEntity
  8
DimPen0Diam
100
AcDbBlockBegin
  2
*DimPen0Diam
 70
   1
 10
0
 20
0
 30
0
  3
*DimPen0Diam
  1
 
  0
LINE
  5
A9F
330
A9D
100
AcDbEntity
  8
DimPen0Diam
100
AcDbLine
 10
219.027
 20
458.049
 30
0
 11
220.973
 21
496.237
 31
0
  0
TEXT
  5
AA0
330
A9D
100
AcDbEntity
  8
DimPen0Diam
100
AcDbText
 10
220
 20
320
 30
0
 40
3.5
  1
⌀73.0 H10 (power_conduit) ± 0.12
  7
STANDARD
 72
1
 11
220
 21
320
 31
0
100
AcDbText
  0
SOLID
  5
AA1
330
A9D
100
AcDbEntity
  8
0
 62
     0
100
AcDbTrace
 10
218.866
 20
463.063
 30
0
 11
219.698
 21
463.021
 31
0
 12
219.027
 22
458.049
 32
0
 13
219.027
 23
458.049
 33
0
  0
SOLID
  5
AA2
330
A9D
100
AcDbEntity
  8
0
 62
     0
100
AcDbTrace
 10
220.302
 20
491.265
 30
0
 11
221.134
 21
491.222
 31
0
 12
220.973
 22
496.237
 32
0
 13
220.973
 23
496.237
 33
0
  0
ENDBLK
  5
AA3
330
A9D
100
AcDbEntity
  8
DimPen0Diam
100
AcDbBlockEnd
  0
BLOCK
  5
AA6
330
AA5
100
AcDbEntity
  8
DimPen1Diam
100
AcDbBlockBegin
  2
*DimPen1Diam
 70
   1
 10
0
 20
0
 30
0
  3
*DimPen1Diam
  1
 
  0
LINE
  5
AA7
330
AA5
100
AcDbEntity
  8
DimPen1Diam
100
AcDbLine
 10
229.167
 20
320
 30
0
 11
210.833
 21
320
 31
0
  0
TEXT
  5
AA8
330
AA5
100
AcDbEntity
  8
DimPen1Diam
100
AcDbText
 10
220
 20
320
 30
0
 40
3.5
  1
⌀35.0 H10 (data_conduit) ± 0.1
  7
STANDARD
 72
1
 11
220
 21
320
 31
0
100
AcDbText
  0
SOLID
  5
AA9
330
AA5
100
AcDbEntity
  8
0
 62
     0
100
AcDbTrace
 10
224.167
 20
319.583
 30
0
 11
224.167
 21
320.417
 31
0
 12
229.167
 22
320
 32
0
 13
229.167
 23
320
 33
0
  0
SOLID
  5
AAA
330
AA5
100
AcDbEntity
  8
0
 62
     0
100
AcDbTrace
 10
215.833
 20
319.583
 30
0
 11
215.833
 21
320.417
 31
0
 12
210.833
 22
320
 32
0
 13
210.833
 23
320
 33
0
  0
ENDBLK
  5
AAB
330
AA5
100
AcDbEntity
  8
DimPen1Diam
100
AcDbBlockEnd
  0
BLOCK
  5
AAE
330
AAD
100
AcDbEntity
  8
DimPen2Diam
100
AcDbBlockBegin
  2
*DimPen2Diam
 70
   1
 10
0
 20
0
 30
0
  3
*DimPen2Diam
  1
 
  0
LINE
  5
AAF
330
AAD
100
AcDbEntity
  8
DimPen2Diam
100
AcDbLine
 10
116.549
 20
164.656
 30
0
 11
113.927
 21
161.058
 31
0
  0
TEXT
  5
AB0
330
AAD
100
AcDbEntity
  8
DimPen2Diam
100
AcDbText
 10
220
 20
320
 30
0
 40
3.5
  1
⌀8.5 TAP M10 THRU
  7
STANDARD
 72
1
 11
220
 21
320
 31
0
100
AcDbText
  0
SOLID
  5
AB1
330
AAD
100
AcDbEntity
  8
0
 62
     0
100
AcDbTrace
 10
113.941
 20
160.37
 30
0
 11
113.267
 21
160.861
 31
0
 12
116.549
 22
164.656
 32
0
 13
116.549
 23
164.656
 33
0
  0
SOLID
  5
AB2
330
AAD
100
AcDbEntity
  8
0
 62
     0
100
AcDbTrace
 10
117.209
 20
164.853
 30
0
 11
116.535
 21
165.344
 31
0
 12
113.927
 22
161.058
 32
0
 13
113.927
 23
161.058
 33
0
  0
ENDBLK
  5
AB3
330
AAD
100
AcDbEntity
  8
DimPen2Diam
100
AcDbBlockEnd
  0
BLOCK
  5
AB6
330
AB5
100
AcDbEntity
  8
DimBolt
100
AcDbBlockBegin
  2
*DimBolt
 70
   1
 10
0
 20
0
 30
0
  3
*DimBolt
  1
 
  0
LINE
  5
AB7
330
AB5
100
AcDbEntity
  8
DimBolt
100
AcDbLine
 10
86.6856
 20
319.833
 30
0
 11
80.9334
 21
320.167
 31
0
  0
TEXT
  5
AB8
330
AB5
100
AcDbEntity
  8
DimBolt
100
AcDbText
 10
220
 20
320
 30
0
 40
3.5
  1
8X ⌀11.0 H9 ± 0.04
  7
STANDARD
 72
1
 11
220
 21
320
 31
0
100
AcDbText
  0
SOLID
  5
AB9
330
AB5
100
AcDbEntity
  8
0
 62
     0
100
AcDbTrace
 10
81.6698
 20
319.707
 30
0
 11
81.7183
 21
320.539
 31
0
 12
86.6856
 22
319.833
 32
0
 13
86.6856
 23
319.833
 33
0
  0
SOLID
  5
ABA
330
AB5
100
AcDbEntity
  8
0
 62
     0
100
AcDbTrace
 10
85.9008
 20
319.461
 30
0
 11
85.9492
 21
320.293
 31
0
 12
80.9334
 22
320.167
 32
0
 13
80.9334
 23
320.167
 33
0
  0
ENDBLK
  5
ABB
330
AB5
100
AcDbEntity
  8
DimBolt
100
AcDbBlockEnd
  0
BLOCK
  5
ABF
330
ABE
100
AcDbEntity
  8
DimThickness
100
AcDbBlockBegin
  2
*DimThickness
 70
   1
 10
0
 20
0
 30
0
  3
*DimThickness
  1
 
  0
LINE
  5
AC0
330
ABE
100
AcDbEntity
  8
DimThickness
100
AcDbLine
 10
432.381
 20
481.571
 30
0
 11
625
 21
481.571
 31
0
  0
LINE
  5
AC1
330
ABE
100
AcDbEntity
  8
DimThickness
100
AcDbLine
 10
432.381
 20
478.429
 30
0
 11
625
 21
478.429
 31
0
  0
LINE
  5
AC2
330
ABE
100
AcDbEntity
  8
DimThickness
100
AcDbLine
 10
625
 20
478.429
 30
0
 11
625
 21
481.571
 31
0
  0
TEXT
  5
AC3
330
ABE
100
AcDbEntity
  8
DimThickness
100
AcDbText
 10
630
 20
480
 30
0
 40
3.5
  1
6
  7
STANDARD
 72
1
 11
625
 21
480
 31
0
100
AcDbText
  0
SOLID
  5
AC4
330
ABE
100
AcDbEntity
  8
0
 62
     0
100
AcDbTrace
 10
625.417
 20
473.429
 30
0
 11
624.583
 21
473.429
 31
0
 12
625
 22
478.429
 32
0
 13
625
 23
478.429
 33
0
  0
SOLID
  5
AC5
330
ABE
100
AcDbEntity
  8
0
 62
     0
100
AcDbTrace
 10
625.417
 20
486.571
 30
0
 11
624.583
 21
486.571
 31
0
 12
625
 22
481.571
 32
0
 13
625
 23
481.571
 33
0
  0
ENDBLK
  5
AC6
330
ABE
100
AcDbEntity
  8
DimThickness
100
AcDbBlockEnd
  0
ENDSEC
  0
SECTION
  2
ENTITIES
  0
LINE
  5
A08
330
A02
100
AcDbEntity
  8
TOP
100
AcDbLine
 10
52.380952381
 20
100.000000000
 30
0.000000000
 11
52.380952381
 21
540.000000000
 31
0.000000000
  0
LINE
  5
A09
330
A02
100
AcDbEntity
  8
TOP
100
AcDbLine
 10
52.380952381
 20
100.000000000
 30
0.000000000
 11
387.619047619
 21
100.000000000
 31
0.000000000
  0
LINE
  5
A0A
330
A02
100
AcDbEntity
  8
TOP
100
AcDbLine
 10
387.619047619
 20
100.000000000
 30
0.000000000
 11
387.619047619
 21
540.000000000
 31
0.000000000
  0
LINE
  5
A0B
330
A02
100
AcDbEntity
  8
TOP
100
AcDbLine
 10
52.380952381
 20
540.000000000
 30
0.000000000
 11
387.619047619
 21
540.000000000
 31
0.000000000
  0
ARC
  5
A0C
330
A02
100
AcDbEntity
  8
TOP
100
AcDbCircle
 10
84.116209338
 20
131.853212929
 30
0.000000000
 40
2.880952381
100
AcDbArc
 50
-35.837652954
 51
144.162347046
  0
LINE
  5
A0D
330
A02
100
AcDbEntity
  8
TOP
100
AcDbLine
 10
86.451737591
 20
130.166442524
 30
0.000000000
 11
85.838366535
 21
129.317159523
 31
0.000000000
  0
ARC
  5
A0E
330
A02
100
AcDbEntity
  8
TOP
100
AcDbCircle
 10
83.502838281
 20
131.003929928
 30
0.000000000
 40
2.880952381
100
AcDbArc
 50
144.162347045
 51
-35.837652954
  0
LINE
  5
A0F
330
A02
100
AcDbEntity
  8
TOP
100
AcDbLine
 10
81.167310028
 20
132.690700333
 30
0.000000000
 11
81.780681085
 21
133.539983334
 31
0.000000000
  0
CIRCLE
  5
A10
330
A02
100
AcDbEntity
  8
TOP
100
AcDbCircle
 10
115.238095238
 20
162.857142857
 30
0.000000000
 40
2.226190476
  0
ARC
  5
A11
330
A02
100
AcDbEntity
  8
TOP
100
AcDbCircle
 10
220.000000000
 20
131.952380952
 30
0.000000000
 40
2.880952381
100
AcDbArc
 50
0.000000000
 51
180.000000000
  0
LINE
  5
A12
330
A02
100
AcDbEntity
  8
TOP
100
AcDbLine
 10
222.880952381
 20
131.952380952
 30
0.000000000
 11
222.880952381
 21
130.904761905
 31
0.000000000
  0
ARC
  5
A13
330
A02
100
AcDbEntity
  8
TOP
100
AcDbCircle
 10
220.000000000
 20
130.904761905
 30
0.000000000
 40
2.880952381
100
AcDbArc
 50
180.000000000
 51
0.000000000
  0
LINE
  5
A14
330
A02
100
AcDbEntity
  8
TOP
100
AcDbLine
 10
217.119047619
 20
130.904761905
 30
0.000000000
 11
217.119047619
 21
131.952380952
 31
0.000000000
  0
ARC
  5
A15
330
A02
100
AcDbEntity
  8
TOP
100
AcDbCircle
 10
355.883790662
 20
131.853212929
 30
0.000000000
 40
2.880952381
100
AcDbArc
 50
35.837652955
 51
-144.162347046
  0
LINE
  5
A16
330
A02
100
AcDbEntity
  8
TOP
100
AcDbLine
 10
358.219318916
 20
133.539983334
 30
0.000000000
 11
358.832689972
 21
132.690700333
 31
0.000000000
  0
ARC
  5
A17
330
A02
100
AcDbEntity
  8
TOP
100
AcDbCircle
 10
356.497161719
 20
131.003929928
 30
0.000000000
 40
2.880952381
100
AcDbArc
 50
-144.162347046
 51
35.837652954
  0
LINE
  5
A18
330
A02
100
AcDbEntity
  8
TOP
100
AcDbLine
 10
354.161633465
 20
129.317159523
 30
0.000000000
 11
353.548262409
 21
130.166442524
 31
0.000000000
  0
CIRCLE
  5
A19
330
A02
100
AcDbEntity
  8
TOP
100
AcDbCircle
 10
83.809523810
 20
320.000000000
 30
0.000000000
 40
2.880952381
  0
ARC
  5
A1A
330
A02
100
AcDbEntity
  8
TOP
100
AcDbCircle
 10
84.116209338
 20
508.146787071
 30
0.000000000
 40
2.880952381
100
AcDbArc
 50
-144.162347046
 51
35.837652954
  0
LINE
  5
A1B
330
A02
100
AcDbEntity
  8
TOP
100
AcDbLine
 10
81.780681085
 20
506.460016666
 30
0.000000000
 11
81.167310028
 21
507.309299667
 31
0.000000000
  0
ARC
  5
A1C
330
A02
100
AcDbEntity
  8
TOP
100
AcDbCircle
 10
83.502838281
 20
508.996070072
 30
0.000000000
 40
2.880952381
100
AcDbArc
 50
35.837652954
 51
-144.162347046
  0
LINE
  5
A1D
330
A02
100
AcDbEntity
  8
TOP
100
AcDbLine
 10
85.838366535
 20
510.682840477
 30
0.000000000
 11
86.451737591
 21
509.833557476
 31
0.000000000
  0
CIRCLE
  5
A1E
330
A02
100
AcDbEntity
  8
TOP
100
AcDbCircle
 10
220.000000000
 20
320.000000000
 30
0.000000000
 40
9.166666667
  0
CIRCLE
  5
A1F
330
A02
100
AcDbEntity
  8
TOP
100
AcDbCircle
 10
356.190476190
 20
320.000000000
 30
0.000000000
 40
2.880952381
  0
CIRCLE
  5
A20
330
A02
100
AcDbEntity
  8
TOP
100
AcDbCircle
 10
220.000000000
 20
477.142857143
 30
0.000000000
 40
19.119047619
  0
ARC
  5
A21
330
A02
100
AcDbEntity
  8
TOP
100
AcDbCircle
 10
220.000000000
 20
508.047619048
 30
0.000000000
 40
2.880952381
100
AcDbArc
 50
180.000000000
 51
0.000000000
  0
LINE
  5
A22
330
A02
100
AcDbEntity
  8
TOP
100
AcDbLine
 10
217.119047619
 20
508.047619048
 30
0.000000000
 11
217.119047619
 21
509.095238095
 31
0.000000000
  0
ARC
  5
A23
330
A02
100
AcDbEntity
  8
TOP
100
AcDbCircle
 10
220.000000000
 20
509.095238095
 30
0.000000000
 40
2.880952381
100
AcDbArc
 50
0.000000000
 51
180.000000000
  0
LINE
  5
A24
330
A02
100
AcDbEntity
  8
TOP
100
AcDbLine
 10
222.880952381
 20
509.095238095
 30
0.000000000
 11
222.880952381
 21
508.047619048
 31
0.000000000
  0
ARC
  5
A25
330
A02
100
AcDbEntity
  8
TOP
100
AcDbCircle
 10
355.883790662
 20
508.146787071
 30
0.000000000
 40
2.880952381
100
AcDbArc
 50
144.162347046
 51
-35.837652954
  0
LINE
  5
A26
330
A02
100
AcDbEntity
  8
TOP
100
AcDbLine
 10
353.548262409
 20
509.833557476
 30
0.000000000
 11
354.161633465
 21
510.682840477
 31
0.000000000
  0
ARC
  5
A27
330
A02
100
AcDbEntity
  8
TOP
100
AcDbCircle
 10
356.497161719
 20
508.996070072
 30
0.000000000
 40
2.880952381
100
AcDbArc
 50
-35.837652954
 51
144.162347046
  0
LINE
  5
A28
330
A02
100
AcDbEntity
  8
TOP
100
AcDbLine
 10
358.832689972
 20
507.309299667
 30
0.000000000
 11
358.219318915
 21
506.460016666
 31
0.000000000
  0
LINE
  5
A29
330
A02
100
AcDbEntity
  8
FRONT
100
AcDbLine
 10
432.380952381
 20
478.428571429
 30
0.000000000
 11
432.380952381
 21
481.571428571
 31
0.000000000
  0
LINE
  5
A2A
330
A02
100
AcDbEntity
  8
FRONT
100
AcDbLine
 10
432.380952381
 20
478.428571429
 30
0.000000000
 11
767.619047619
 21
478.428571429
 31
0.000000000
  0
LINE
  5
A2B
330
A02
100
AcDbEntity
  8
FRONT
100
AcDbLine
 10
432.380952381
 20
481.571428571
 30
0.000000000
 11
767.619047619
 21
481.571428571
 31
0.000000000
  0
LINE
  5
A2C
330
A02
100
AcDbEntity
  8
FRONT
100
AcDbLine
 10
767.619047619
 20
478.428571429
 30
0.000000000
 11
767.619047619
 21
481.571428571
 31
0.000000000
  0
LINE
  5
A2D
330
A02
100
AcDbEntity
  8
ISOMETRIC
100
AcDbLine
 10
455.547165747
 20
286.399499809
 30
0.000000000
 11
455.547165747
 21
287.939179076
 31
0.000000000
  0
LINE
  5
A2E
330
A02
100
AcDbEntity
  8
ISOMETRIC
100
AcDbLine
 10
455.547165747
 20
287.939179076
 30
0.000000000
 11
642.223355980
 21
395.716727758
 31
0.000000000
  0
LINE
  5
A2F
330
A02
100
AcDbEntity
  8
ISOMETRIC
100
AcDbLine
 10
455.547165747
 20
286.399499809
 30
0.000000000
 11
597.776644020
 21
204.283272242
 31
0.000000000
  0
LINE
  5
A30
330
A02
100
AcDbEntity
  8
ISOMETRIC
100
AcDbLine
 10
455.547165747
 20
287.939179076
 30
0.000000000
 11
597.776644020
 21
205.822951508
 31
0.000000000
  0
LINE
  5
A31
330
A02
100
AcDbEntity
  8
ISOMETRIC
100
AcDbLine
 10
597.776644020
 20
204.283272242
 30
0.000000000
 11
597.776644020
 21
205.822951508
 31
0.000000000
  0
LINE
  5
A32
330
A02
100
AcDbEntity
  8
ISOMETRIC
100
AcDbLine
 10
597.776644020
 20
205.822951508
 30
0.000000000
 11
784.452834253
 21
313.600500191
 31
0.000000000
  0
LINE
  5
A33
330
A02
100
AcDbEntity
  8
ISOMETRIC
100
AcDbLine
 10
642.223355980
 20
395.716727758
 30
0.000000000
 11
784.452834253
 21
313.600500191
 31
0.000000000
  0
ELLIPSE
  5
A34
330
A02
100
AcDbEntity
  8
ISOMETRIC
100
AcDbEllipse
 10
482.525468704
 20
287.968072270
 30
0.000000000
 11
1.728571429
 21
0.000000000
 31
0.000000000
 40
0.577350269
 41
4.872302104
 42
0.000000000
  0
ELLIPSE
  5
A35
330
A02
100
AcDbEntity
  8
ISOMETRIC
100
AcDbEllipse
 10
482.525468704
 20
287.968072270
 30
0.000000000
 11
1.728571429
 21
0.000000000
 31
0.000000000
 40
0.577350269
 41
0.000000000
 42
1.730709450
  0
LINE
  5
A36
330
A02
100
AcDbEntity
  8
ISOMETRIC
100
AcDbLine
 10
482.800713348
 20
286.982814340
 30
0.000000000
 11
482.180161787
 21
286.925027951
 31
0.000000000
  0
ELLIPSE
  5
A37
330
A02
100
AcDbEntity
  8
ISOMETRIC
100
AcDbEllipse
 10
481.904917142
 20
287.910285882
 30
0.000000000
 11
1.728571429
 21
0.000000000
 31
0.000000000
 40
0.577350269
 41
1.730709450
 42
3.141592654
  0
ELLIPSE
  5
A38
330
A02
100
AcDbEntity
  8
ISOMETRIC
100
AcDbEllipse
 10
481.904917142
 20
287.910285882
 30
0.000000000
 11
1.728571429
 21
0.000000000
 31
0.000000000
 40
0.577350269
 41
3.141592654
 42
4.872302104
  0
LINE
  5
A39
330
A02
100
AcDbEntity
  8
ISOMETRIC
100
AcDbLine
 10
481.629672498
 20
288.895543812
 30
0.000000000
 11
482.250224060
 21
288.953330201
 31
0.000000000
  0
ELLIPSE
  5
A3A
330
A02
100
AcDbEntity
  8
ISOMETRIC
100
AcDbEllipse
 10
508.883220099
 20
287.939179076
 30
0.000000000
 11
-1.335714286
 21
0.000000000
 31
0.000000000
 40
0.577350269
 41
-3.141592654
 42
-0.785398163
  0
ELLIPSE
  5
A3B
330
A02
100
AcDbEntity
  8
ISOMETRIC
100
AcDbEllipse
 10
508.883220099
 20
287.939179076
 30
0.000000000
 11
-1.335714286
 21
0.000000000
 31
0.000000000
 40
0.577350269
 41
-0.000000000
 42
-3.141592654
  0
ELLIPSE
  5
A3C
330
A02
100
AcDbEntity
  8
ISOMETRIC
100
AcDbEllipse
 10
508.883220099
 20
287.939179076
 30
0.000000000
 11
-1.335714286
 21
0.000000000
 31
0.000000000
 40
0.577350269
 41
-0.785398163
 42
-0.000000000
  0
ELLIPSE
  5
A3D
330
A02
100
AcDbEntity
  8
ISOMETRIC
100
AcDbEllipse
 10
540.218152031
 20
254.707768232
 30
0.000000000
 11
1.728571429
 21
0.000000000
 31
0.000000000
 40
0.577350269
 41
5.497787144
 42
0.000000000
  0
ELLIPSE
  5
A3E
330
A02
100
AcDbEntity
  8
ISOMETRIC
100
AcDbEllipse
 10
540.218152031
 20
254.707768232
 30
0.000000000
 11
1.728571429
 21
0.000000000
 31
0.000000000
 40
0.577350269
 41
0.000000000
 42
2.356194490
  0
LINE
  5
A3F
330
A02
100
AcDbEntity
  8
ISOMETRIC
100
AcDbLine
 10
541.440436610
 20
254.002081902
 30
0.000000000
 11
540.995969491
 21
253.745468690
 31
0.000000000
  0
ELLIPSE
  5
A40
330
A02
100
AcDbEntity
  8
ISOMETRIC
100
AcDbEllipse
 10
539.773684912
 20
254.451155021
 30
0.000000000
 11
1.728571429
 21
0.000000000
 31
0.000000000
 40
0.577350269
 41
2.356194490
 42
3.141592654
  0
ELLIPSE
  5
A41
330
A02
100
AcDbEntity
  8
ISOMETRIC
100
AcDbEllipse
 10
539.773684912
 20
254.451155021
 30
0.000000000
 11
1.728571429
 21
0.000000000
 31
0.000000000
 40
0.577350269
 41
3.141592654
 42
5.497787144
  0
LINE
  5
A42
330
A02
100
AcDbEntity
  8
ISOMETRIC
100
AcDbLine
 10
538.551400333
 20
255.156841352
 30
0.000000000
 11
538.995867452
 21
255.413454563
 31
0.000000000
  0
ELLIPSE
  5
A43
330
A02
100
AcDbEntity
  8
ISOMETRIC
100
AcDbEllipse
 10
597.826688501
 20
221.398881983
 30
0.000000000
 11
1.728571429
 21
0.000000000
 31
0.000000000
 40
0.577350269
 41
6.123272184
 42
0.000000000
  0
ELLIPSE
  5
A44
330
A02
100
AcDbEntity
  8
ISOMETRIC
100
AcDbEllipse
 10
597.826688501
 20
221.398881983
 30
0.000000000
 11
1.728571429
 21
0.000000000
 31
0.000000000
 40
0.577350269
 41
0.000000000
 42
2.981679530
  0
LINE
  5
A45
330
A02
100
AcDbEntity
  8
ISOMETRIC
100
AcDbLine
 10
599.533205295
 20
221.239969413
 30
0.000000000
 11
599.433116333
 21
220.881693802
 31
0.000000000
  0
ELLIPSE
  5
A46
330
A02
100
AcDbEntity
  8
ISOMETRIC
100
AcDbEllipse
 10
597.726599539
 20
221.040606372
 30
0.000000000
 11
1.728571429
 21
0.000000000
 31
0.000000000
 40
0.577350269
 41
2.981679530
 42
3.141592654
  0
ELLIPSE
  5
A47
330
A02
100
AcDbEntity
  8
ISOMETRIC
100
AcDbEllipse
 10
597.726599539
 20
221.040606372
 30
0.000000000
 11
1.728571429
 21
0.000000000
 31
0.000000000
 40
0.577350269
 41
3.141592654
 42
6.123272184
  0
LINE
  5
A48
330
A02
100
AcDbEntity
  8
ISOMETRIC
100
AcDbLine
 10
596.020082745
 20
221.199518941
 30
0.000000000
 11
596.120171706
 21
221.557794552
 31
0.000000000
  0
ELLIPSE
  5
A49
330
A02
100
AcDbEntity
  8
ISOMETRIC
100
AcDbEllipse
 10
562.219274452
 20
334.129557083
 30
0.000000000
 11
-1.728571429
 21
0.000000000
 31
0.000000000
 40
0.577350269
 41
-3.141592654
 42
-0.785398163
  0
ELLIPSE
  5
A4A
330
A02
100
AcDbEntity
  8
ISOMETRIC
100
AcDbEllipse
 10
562.219274452
 20
334.129557083
 30
0.000000000
 11
-1.728571429
 21
0.000000000
 31
0.000000000
 40
0.577350269
 41
-0.000000000
 42
-3.141592654
  0
ELLIPSE
  5
A4B
330
A02
100
AcDbEntity
  8
ISOMETRIC
100
AcDbEllipse
 10
562.219274452
 20
334.129557083
 30
0.000000000
 11
-1.728571429
 21
0.000000000
 31
0.000000000
 40
0.577350269
 41
-0.785398163
 42
-0.000000000
  0
ELLIPSE
  5
A4C
330
A02
100
AcDbEntity
  8
ISOMETRIC
100
AcDbEllipse
 10
642.173311499
 20
380.140797284
 30
0.000000000
 11
1.728571429
 21
0.000000000
 31
0.000000000
 40
0.577350269
 41
2.981679530
 42
3.141592654
  0
ELLIPSE
  5
A4D
330
A02
100
AcDbEntity
  8
ISOMETRIC
100
AcDbEllipse
 10
642.173311499
 20
380.140797284
 30
0.000000000
 11
1.728571429
 21
0.000000000
 31
0.000000000
 40
0.577350269
 41
3.141592654
 42
6.123272184
  0
LINE
  5
A4E
330
A02
100
AcDbEntity
  8
ISOMETRIC
100
AcDbLine
 10
640.466794705
 20
380.299709853
 30
0.000000000
 11
640.566883667
 21
380.657985465
 31
0.000000000
  0
ELLIPSE
  5
A4F
330
A02
100
AcDbEntity
  8
ISOMETRIC
100
AcDbEllipse
 10
642.273400461
 20
380.499072895
 30
0.000000000
 11
1.728571429
 21
0.000000000
 31
0.000000000
 40
0.577350269
 41
6.123272184
 42
0.000000000
  0
ELLIPSE
  5
A50
330
A02
100
AcDbEntity
  8
ISOMETRIC
100
AcDbEllipse
 10
642.273400461
 20
380.499072895
 30
0.000000000
 11
1.728571429
 21
0.000000000
 31
0.000000000
 40
0.577350269
 41
0.000000000
 42
2.981679530
  0
LINE
  5
A51
330
A02
100
AcDbEntity
  8
ISOMETRIC
100
AcDbLine
 10
643.979917255
 20
380.340160326
 30
0.000000000
 11
643.879828294
 21
379.981884715
 31
0.000000000
  0
ELLIPSE
  5
A52
330
A02
100
AcDbEntity
  8
ISOMETRIC
100
AcDbEllipse
 10
620.000000000
 20
300.769839633
 30
0.000000000
 11
-5.500000000
 21
0.000000000
 31
0.000000000
 40
0.577350269
 41
-3.141592654
 42
-0.785398163
  0
ELLIPSE
  5
A53
330
A02
100
AcDbEntity
  8
ISOMETRIC
100
AcDbEllipse
 10
620.000000000
 20
300.769839633
 30
0.000000000
 11
-5.500000000
 21
0.000000000
 31
0.000000000
 40
0.577350269
 41
-0.000000000
 42
-3.141592654
  0
ELLIPSE
  5
A54
330
A02
100
AcDbEntity
  8
ISOMETRIC
100
AcDbEllipse
 10
620.000000000
 20
300.769839633
 30
0.000000000
 11
-5.500000000
 21
0.000000000
 31
0.000000000
 40
0.577350269
 41
-0.785398163
 42
-0.000000000
  0
ELLIPSE
  5
A55
330
A02
100
AcDbEntity
  8
ISOMETRIC
100
AcDbEllipse
 10
677.780725548
 20
267.410122184
 30
0.000000000
 11
-1.728571429
 21
0.000000000
 31
0.000000000
 40
0.577350269
 41
-3.141592654
 42
-0.785398163
  0
ELLIPSE
  5
A56
330
A02
100
AcDbEntity
  8
ISOMETRIC
100
AcDbEllipse
 10
677.780725548
 20
267.410122184
 30
0.000000000
 11
-1.728571429
 21
0.000000000
 31
0.000000000
 40
0.577350269
 41
-0.000000000
 42
-3.141592654
  0
ELLIPSE
  5
A57
330
A02
100
AcDbEntity
  8
ISOMETRIC
100
AcDbEllipse
 10
677.780725548
 20
267.410122184
 30
0.000000000
 11
-1.728571429
 21
0.000000000
 31
0.000000000
 40
0.577350269
 41
-0.785398163
 42
-0.000000000
  0
ELLIPSE
  5
A58
330
A02
100
AcDbEntity
  8
ISOMETRIC
100
AcDbEllipse
 10
686.670067940
 20
339.261821306
 30
0.000000000
 11
-11.471428571
 21
0.000000000
 31
0.000000000
 40
0.577350269
 41
-3.141592654
 42
-0.785398163
  0
ELLIPSE
  5
A59
330
A02
100
AcDbEntity
  8
ISOMETRIC
100
AcDbEllipse
 10
686.670067940
 20
339.261821306
 30
0.000000000
 11
-11.471428571
 21
0.000000000
 31
0.000000000
 40
0.577350269
 41
-0.000000000
 42
-3.141592654
  0
ELLIPSE
  5
A5A
330
A02
100
AcDbEntity
  8
ISOMETRIC
100
AcDbEllipse
 10
686.670067940
 20
339.261821306
 30
0.000000000
 11
-11.471428571
 21
0.000000000
 31
0.000000000
 40
0.577350269
 41
-0.785398163
 42
-0.000000000
  0
ELLIPSE
  5
A5B
330
A02
100
AcDbEntity
  8
ISOMETRIC
100
AcDbEllipse
 10
699.781847969
 20
346.831911035
 30
0.000000000
 11
1.728571429
 21
0.000000000
 31
0.000000000
 40
0.577350269
 41
2.356194490
 42
3.141592654
  0
ELLIPSE
  5
A5C
330
A02
100
AcDbEntity
  8
ISOMETRIC
100
AcDbEllipse
 10
699.781847969
 20
346.831911035
 30
0.000000000
 11
1.728571429
 21
0.000000000
 31
0.000000000
 40
0.577350269
 41
3.141592654
 42
5.497787144
  0
LINE
  5
A5D
330
A02
100
AcDbEntity
  8
ISOMETRIC
100
AcDbLine
 10
698.559563390
 20
347.537597365
 30
0.000000000
 11
699.004030509
 21
347.794210576
 31
0.000000000
  0
ELLIPSE
  5
A5E
330
A02
100
AcDbEntity
  8
ISOMETRIC
100
AcDbEllipse
 10
700.226315088
 20
347.088524246
 30
0.000000000
 11
1.728571429
 21
0.000000000
 31
0.000000000
 40
0.577350269
 41
5.497787144
 42
0.000000000
  0
ELLIPSE
  5
A5F
330
A02
100
AcDbEntity
  8
ISOMETRIC
100
AcDbEllipse
 10
700.226315088
 20
347.088524246
 30
0.000000000
 11
1.728571429
 21
0.000000000
 31
0.000000000
 40
0.577350269
 41
0.000000000
 42
2.356194490
  0
LINE
  5
A60
330
A02
100
AcDbEntity
  8
ISOMETRIC
100
AcDbLine
 10
701.448599667
 20
346.382837915
 30
0.000000000
 11
701.004132548
 21
346.126224704
 31
0.000000000
  0
ELLIPSE
  5
A61
330
A02
100
AcDbEntity
  8
ISOMETRIC
100
AcDbEllipse
 10
757.474531296
 20
313.571606996
 30
0.000000000
 11
1.728571429
 21
0.000000000
 31
0.000000000
 40
0.577350269
 41
1.730709450
 42
3.141592654
  0
ELLIPSE
  5
A62
330
A02
100
AcDbEntity
  8
ISOMETRIC
100
AcDbEllipse
 10
757.474531296
 20
313.571606996
 30
0.000000000
 11
1.728571429
 21
0.000000000
 31
0.000000000
 40
0.577350269
 41
3.141592654
 42
4.872302104
  0
LINE
  5
A63
330
A02
100
AcDbEntity
  8
ISOMETRIC
100
AcDbLine
 10
757.199286652
 20
314.556864927
 30
0.000000000
 11
757.819838213
 21
314.614651316
 31
0.000000000
  0
ELLIPSE
  5
A64
330
A02
100
AcDbEntity
  8
ISOMETRIC
100
AcDbEllipse
 10
758.095082858
 20
313.629393385
 30
0.000000000
 11
1.728571429
 21
0.000000000
 31
0.000000000
 40
0.577350269
 41
4.872302104
 42
0.000000000
  0
ELLIPSE
  5
A65
330
A02
100
AcDbEntity
  8
ISOMETRIC
100
AcDbEllipse
 10
758.095082858
 20
313.629393385
 30
0.000000000
 11
1.728571429
 21
0.000000000
 31
0.000000000
 40
0.577350269
 41
0.000000000
 42
1.730709450
  0
LINE
  5
A66
330
A02
100
AcDbEntity
  8
ISOMETRIC
100
AcDbLine
 10
758.370327502
 20
312.644135455
 30
0.000000000
 11
757.749775940
 21
312.586349066
 31
0.000000000
  0
LINE
  5
A67
330
A02
100
AcDbEntity
  8
ISOMETRIC
100
AcDbLine
 10
784.452834253
 20
312.060820924
 30
0.000000000
 11
784.452834253
 21
313.600500191
 31
0.000000000
  0
LINE
  5
A68
330
A02
100
AcDbEntity
  8
ISOMETRIC
100
AcDbLine
 10
597.776644020
 20
204.283272242
 30
0.000000000
 11
784.452834253
 21
312.060820924
 31
0.000000000
  0
ELLIPSE
  5
A69
330
A02
100
AcDbEntity
  8
ISOMETRIC
100
AcDbEllipse
 10
482.525468704
 20
286.428393004
 30
0.000000000
 11
1.728571429
 21
0.000000000
 31
0.000000000
 40
0.577350269
 41
0.881021326
 42
1.730709450
  0
ELLIPSE
  5
A6A
330
A02
100
AcDbEntity
  8
ISOMETRIC
100
AcDbEllipse
 10
481.904917142
 20
286.370606615
 30
0.000000000
 11
1.728571429
 21
0.000000000
 31
0.000000000
 40
0.577350269
 41
1.730709450
 42
2.260571328
  0
LINE
  5
A6B
330
A02
100
AcDbEntity
  8
ISOMETRIC
100
AcDbLine
 10
481.629672498
 20
287.355864545
 30
0.000000000
 11
482.250224060
 21
287.413650934
 31
0.000000000
  0
ELLIPSE
  5
A6C
330
A02
100
AcDbEntity
  8
ISOMETRIC
100
AcDbEllipse
 10
508.883220099
 20
286.399499809
 30
0.000000000
 11
-1.335714286
 21
0.000000000
 31
0.000000000
 40
0.577350269
 41
-1.629653833
 42
-1.511938821
  0
ELLIPSE
  5
A6D
330
A02
100
AcDbEntity
  8
ISOMETRIC
100
AcDbEllipse
 10
540.218152031
 20
253.168088965
 30
0.000000000
 11
1.728571429
 21
0.000000000
 31
0.000000000
 40
0.577350269
 41
0.876432941
 42
2.356194490
  0
LINE
  5
A6E
330
A02
100
AcDbEntity
  8
ISOMETRIC
100
AcDbLine
 10
538.667578354
 20
253.684237497
 30
0.000000000
 11
538.995867452
 21
253.873775296
 31
0.000000000
  0
ELLIPSE
  5
A6F
330
A02
100
AcDbEntity
  8
ISOMETRIC
100
AcDbEllipse
 10
597.826688501
 20
219.859202716
 30
0.000000000
 11
1.728571429
 21
0.000000000
 31
0.000000000
 40
0.577350269
 41
0.683155312
 42
2.556186099
  0
ELLIPSE
  5
A70
330
A02
100
AcDbEntity
  8
ISOMETRIC
100
AcDbEllipse
 10
562.219274452
 20
332.589877816
 30
0.000000000
 11
-1.728571429
 21
0.000000000
 31
0.000000000
 40
0.577350269
 41
-2.260571328
 42
-0.881021326
  0
ELLIPSE
  5
A71
330
A02
100
AcDbEntity
  8
ISOMETRIC
100
AcDbEllipse
 10
642.273400461
 20
378.959393628
 30
0.000000000
 11
1.728571429
 21
0.000000000
 31
0.000000000
 40
0.577350269
 41
0.683155312
 42
2.556186099
  0
ELLIPSE
  5
A72
330
A02
100
AcDbEntity
  8
ISOMETRIC
100
AcDbEllipse
 10
620.000000000
 20
299.230160367
 30
0.000000000
 11
-5.500000000
 21
0.000000000
 31
0.000000000
 40
0.577350269
 41
-2.896716051
 42
-0.785398163
  0
ELLIPSE
  5
A73
330
A02
100
AcDbEntity
  8
ISOMETRIC
100
AcDbEllipse
 10
620.000000000
 20
299.230160367
 30
0.000000000
 11
-5.500000000
 21
0.000000000
 31
0.000000000
 40
0.577350269
 41
-0.785398163
 42
-0.244876603
  0
ELLIPSE
  5
A74
330
A02
100
AcDbEntity
  8
ISOMETRIC
100
AcDbEllipse
 10
677.780725548
 20
265.870442917
 30
0.000000000
 11
-1.728571429
 21
0.000000000
 31
0.000000000
 40
0.577350269
 41
-2.260571328
 42
-0.881021326
  0
ELLIPSE
  5
A75
330
A02
100
AcDbEntity
  8
ISOMETRIC
100
AcDbEllipse
 10
686.670067940
 20
337.722142039
 30
0.000000000
 11
-11.471428571
 21
0.000000000
 31
0.000000000
 40
0.577350269
 41
-3.025092573
 42
-0.785398163
  0
ELLIPSE
  5
A76
330
A02
100
AcDbEntity
  8
ISOMETRIC
100
AcDbEllipse
 10
686.670067940
 20
337.722142039
 30
0.000000000
 11
-11.471428571
 21
0.000000000
 31
0.000000000
 40
0.577350269
 41
-0.785398163
 42
-0.116500081
  0
LINE
  5
A77
330
A02
100
AcDbEntity
  8
ISOMETRIC
100
AcDbLine
 10
698.675741411
 20
346.064993510
 30
0.000000000
 11
699.004030509
 21
346.254531310
 31
0.000000000
  0
ELLIPSE
  5
A78
330
A02
100
AcDbEntity
  8
ISOMETRIC
100
AcDbEllipse
 10
700.226315088
 20
345.548844979
 30
0.000000000
 11
1.728571429
 21
0.000000000
 31
0.000000000
 40
0.577350269
 41
0.876432941
 42
2.356194490
  0
ELLIPSE
  5
A79
330
A02
100
AcDbEntity
  8
ISOMETRIC
100
AcDbEllipse
 10
757.474531296
 20
312.031927730
 30
0.000000000
 11
1.728571429
 21
0.000000000
 31
0.000000000
 40
0.577350269
 41
1.730709450
 42
2.260571328
  0
LINE
  5
A7A
330
A02
100
AcDbEntity
  8
ISOMETRIC
100
AcDbLine
 10
757.199286652
 20
313.017185660
 30
0.000000000
 11
757.819838213
 21
313.074972049
 31
0.000000000
  0
ELLIPSE
  5
A7B
330
A02
100
AcDbEntity
  8
ISOMETRIC
100
AcDbEllipse
 10
758.095082858
 20
312.089714118
 30
0.000000000
 11
1.728571429
 21
0.000000000
 31
0.000000000
 40
0.577350269
 41
0.881021326
 42
1.730709450
  0
LINE
  5
A7C
330
A02
100
AcDbEntity
  8
ISOMETRIC
100
AcDbLine
 10
482.250224060
 20
288.953330201
 30
0.000000000
 11
482.250224060
 21
287.413650934
 31
0.000000000
  0
LINE
  5
A7D
330
A02
100
AcDbEntity
  8
ISOMETRIC
100
AcDbLine
 10
481.629672498
 20
288.895543812
 30
0.000000000
 11
481.629672498
 21
287.355864545
 31
0.000000000
  0
LINE
  5
A7E
330
A02
100
AcDbEntity
  8
ISOMETRIC
100
AcDbLine
 10
538.995867452
 20
255.413454563
 30
0.000000000
 11
538.995867452
 21
253.873775296
 31
0.000000000
  0
LINE
  5
A7F
330
A02
100
AcDbEntity
  8
ISOMETRIC
100
AcDbLine
 10
538.551400333
 20
255.156841352
 30
0.000000000
 11
538.551400333
 21
253.745468690
 31
0.000000000
  0
LINE
  5
A80
330
A02
100
AcDbEntity
  8
ISOMETRIC
100
AcDbLine
 10
596.120171706
 20
221.557794552
 30
0.000000000
 11
596.120171706
 21
220.672119013
 31
0.000000000
  0
LINE
  5
A81
330
A02
100
AcDbEntity
  8
ISOMETRIC
100
AcDbLine
 10
596.020082745
 20
221.199518941
 30
0.000000000
 11
596.020082745
 21
220.881693802
 31
0.000000000
  0
LINE
  5
A82
330
A02
100
AcDbEntity
  8
ISOMETRIC
100
AcDbLine
 10
640.466794705
 20
380.299709853
 30
0.000000000
 11
640.466794705
 21
379.981884715
 31
0.000000000
  0
LINE
  5
A83
330
A02
100
AcDbEntity
  8
ISOMETRIC
100
AcDbLine
 10
640.566883667
 20
380.657985465
 30
0.000000000
 11
640.566883667
 21
379.772309925
 31
0.000000000
  0
LINE
  5
A84
330
A02
100
AcDbEntity
  8
ISOMETRIC
100
AcDbLine
 10
698.559563390
 20
347.537597365
 30
0.000000000
 11
698.559563390
 21
346.126224704
 31
0.000000000
  0
LINE
  5
A85
330
A02
100
AcDbEntity
  8
ISOMETRIC
100
AcDbLine
 10
699.004030509
 20
347.794210576
 30
0.000000000
 11
699.004030509
 21
346.254531310
 31
0.000000000
  0
LINE
  5
A86
330
A02
100
AcDbEntity
  8
ISOMETRIC
100
AcDbLine
 10
757.199286652
 20
314.556864927
 30
0.000000000
 11
757.199286652
 21
313.017185660
 31
0.000000000
  0
LINE
  5
A87
330
A02
100
AcDbEntity
  8
ISOMETRIC
100
AcDbLine
 10
757.819838213
 20
314.614651316
 30
0.000000000
 11
757.819838213
 21
313.074972049
 31
0.000000000
  0
DIMENSION
  5
A88
330
A02
100
AcDbEntity
  8
DimWidth
100
AcDbDimension
  2
*DimWidth
 10
220.000000000
 20
315.000000000
 30
0.000000000
 11
220.000000000
 21
320.000000000
 31
0.000000000
 70
32
  1
640
  3
STANDARD
100
AcDbAlignedDimension
 13
52.380952381
 23
100.000000000
 33
0.000000000
 14
387.619047619
 24
100.000000000
 34
0.000000000
100
AcDbRotatedDimension
  0
DIMENSION
  5
A92
330
A02
100
AcDbEntity
  8
DimHeight
100
AcDbDimension
  2
*DimHeight
 10
215.000000000
 20
320.000000000
 30
0.000000000
 11
220.000000000
 21
320.000000000
 31
0.000000000
 70
32
  1
840
  3
STANDARD
100
AcDbAlignedDimension
 13
52.380952381
 23
100.000000000
 33
0.000000000
 14
52.380952381
 24
540.000000000
 34
0.000000000
 50
90
100
AcDbRotatedDimension
  0
DIMENSION
  5
A9C
330
A02
100
AcDbEntity
  8
DimPen0Diam
100
AcDbDimension
  2
*DimPen0Diam
 10
219.027427083
 20
458.048562608
 30
0.000000000
 11
220.000000000
 21
320.000000000
 31
0.000000000
 70
3
  1
⌀73.0 H10 (power_conduit) ± 0.12
  3
STANDARD
100
AcDbDiametricDimension
 15
220.972572917
 25
496.237151678
 35
0.000000000
 40
0
  0
DIMENSION
  5
AA4
330
A02
100
AcDbEntity
  8
DimPen1Diam
100
AcDbDimension
  2
*DimPen1Diam
 10
229.166666667
 20
320.000000000
 30
0.000000000
 11
220.000000000
 21
320.000000000
 31
0.000000000
 70
3
  1
⌀35.0 H10 (data_conduit) ± 0.1
  3
STANDARD
100
AcDbDiametricDimension
 15
210.833333333
 25
320.000000000
 35
0.000000000
 40
0
  0
DIMENSION
  5
AAC
330
A02
100
AcDbEntity
  8
DimPen2Diam
100
AcDbDimension
  2
*DimPen2Diam
 10
116.549497570
 20
164.656072528
 30
0.000000000
 11
220.000000000
 21
320.000000000
 31
0.000000000
 70
3
  1
⌀8.5 TAP M10 THRU
  3
STANDARD
100
AcDbDiametricDimension
 15
113.926692906
 25
161.058213187
 35
0.000000000
 40
0
  0
DIMENSION
  5
AB4
330
A02
100
AcDbEntity
  8
DimBolt
100
AcDbDimension
  2
*DimBolt
 10
86.685607876
 20
319.832587139
 30
0.000000000
 11
220.000000000
 21
320.000000000
 31
0.000000000
 70
3
  1
8X ⌀11.0 H9 ± 0.04
  3
STANDARD
100
AcDbDiametricDimension
 15
80.933439743
 25
320.167412861
 35
0.000000000
 40
0
  0
TEXT
  5
ABC
330
A02
100
AcDbEntity
  8
SlotNote
100
AcDbText
 10
460.000000000
 20
150.000000000
 30
0.000000000
 40
3.000000000
  1
SLOT 13x⌀11 H9
  7
STANDARD
 72
1
 11
460.000000000
 21
150.000000000
 31
0.000000000
100
AcDbText
  0
DIMENSION
  5
ABD
330
A02
100
AcDbEntity
  8
DimThickness
100
AcDbDimension
  2
*DimThickness
 10
625.000000000
 20
480.000000000
 30
0.000000000
 11
630.000000000
 21
480.000000000
 31
0.000000000
 70
32
  1
6
  3
STANDARD
100
AcDbAlignedDimension
 13
432.380952381
 23
478.428571429
 33
0.000000000
 14
432.380952381
 24
481.571428571
 34
0.000000000
 50
90
100
AcDbRotatedDimension
  0
TEXT
  5
AC7
330
A02
100
AcDbEntity
  8
Notes
100
AcDbText
 10
50.000000000
 20
480.000000000
 30
0.000000000
 40
3.000000000
  1
NOTES:
  7
STANDARD
 72
1
 11
50.000000000
 21
480.000000000
 31
0.000000000
100
AcDbText
  0
TEXT
  5
AC8
330
A02
100
AcDbEntity
  8
LabelTOP
100
AcDbText
 10
220.000000000
 20
270.000000000
 30
0.000000000
 40
5.000000000
  1
TOP
  7
STANDARD
 72
1
 11
220.000000000
 21
270.000000000
 31
0.000000000
100
AcDbText
  0
TEXT
  5
AC9
330
A02
100
AcDbEntity
  8
LabelFRONT
100
AcDbText
 10
600.000000000
 20
430.000000000
 30
0.000000000
 40
5.000000000
  1
FRONT
  7
STANDARD
 72
1
 11
600.000000000
 21
430.000000000
 31
0.000000000
100
AcDbText
  0
TEXT
  5
ACA
330
A02
100
AcDbEntity
  8
LabelISOMETRIC
100
AcDbText
 10
620.000000000
 20
250.000000000
 30
0.000000000
 40
5.000000000
  1
ISOMETRIC
  7
STANDARD
 72
1
 11
620.000000000
 21
250.000000000
 31
0.000000000
100
AcDbText
  0
ENDSEC
  0
SECTION
  2
OBJECTS
  0
DICTIONARY
  5
F000
330
0
100
AcDbDictionary
  3
ACAD_GROUP
350
F001
  0
DICTIONARY
  5
F001
330
F000
100
AcDbDictionary
  0
ENDSEC
  0
EOF